<?xml version="1.0" encoding="utf-8"?>
<!-- Generator: Adobe Illustrator 22.1.0, SVG Export Plug-In . SVG Version: 6.00 Build 0)  -->
<svg version="1.1" id="Layer_1" xmlns="http://www.w3.org/2000/svg" xmlns:xlink="http://www.w3.org/1999/xlink" x="0px" y="0px"
	 viewBox="0 0 168 274" style="enable-background:new 0 0 168 274;" xml:space="preserve">
<style type="text/css">
	.st0{fill-rule:evenodd;clip-rule:evenodd;fill:#DBE2EE;}
</style>
<g>
	<g>
		<path class="st0" d="M166.5,3.9c0.9,0,1.7-0.8,1.7-1.7c0-0.9-0.8-1.7-1.7-1.7s-1.7,0.8-1.7,1.7C164.8,3.1,165.6,3.9,166.5,3.9z
			 M149.1,0.5c-0.9,0-1.7,0.8-1.7,1.7c0,0.9,0.8,1.7,1.7,1.7c0.9,0,1.7-0.8,1.7-1.7C150.8,1.3,150,0.5,149.1,0.5z M132.7,0.5
			c-0.9,0-1.7,0.8-1.7,1.7c0,0.9,0.8,1.7,1.7,1.7c0.9,0,1.7-0.8,1.7-1.7C134.4,1.3,133.6,0.5,132.7,0.5z M117.2,0.5
			c-0.9,0-1.7,0.8-1.7,1.7c0,0.9,0.8,1.7,1.7,1.7c0.9,0,1.7-0.8,1.7-1.7C118.9,1.3,118.1,0.5,117.2,0.5z M166.5,15.1
			c-0.9,0-1.7,0.8-1.7,1.7c0,0.9,0.8,1.7,1.7,1.7s1.7-0.8,1.7-1.7C168.2,15.9,167.4,15.1,166.5,15.1z M149.1,15.1
			c-0.9,0-1.7,0.8-1.7,1.7c0,0.9,0.8,1.7,1.7,1.7c0.9,0,1.7-0.8,1.7-1.7C150.8,15.9,150,15.1,149.1,15.1z M132.7,15.1
			c-0.9,0-1.7,0.8-1.7,1.7c0,0.9,0.8,1.7,1.7,1.7c0.9,0,1.7-0.8,1.7-1.7C134.4,15.9,133.6,15.1,132.7,15.1z M117.2,15.1
			c-0.9,0-1.7,0.8-1.7,1.7c0,0.9,0.8,1.7,1.7,1.7c0.9,0,1.7-0.8,1.7-1.7C118.9,15.9,118.1,15.1,117.2,15.1z M166.5,29.8
			c-0.9,0-1.7,0.8-1.7,1.7c0,0.9,0.8,1.7,1.7,1.7s1.7-0.8,1.7-1.7C168.2,30.5,167.4,29.8,166.5,29.8z M149.1,29.8
			c-0.9,0-1.7,0.8-1.7,1.7c0,0.9,0.8,1.7,1.7,1.7c0.9,0,1.7-0.8,1.7-1.7C150.8,30.5,150,29.8,149.1,29.8z M132.7,29.8
			c-0.9,0-1.7,0.8-1.7,1.7c0,0.9,0.8,1.7,1.7,1.7c0.9,0,1.7-0.8,1.7-1.7C134.4,30.5,133.6,29.8,132.7,29.8z M117.2,29.8
			c-0.9,0-1.7,0.8-1.7,1.7c0,0.9,0.8,1.7,1.7,1.7c0.9,0,1.7-0.8,1.7-1.7C118.9,30.5,118.1,29.8,117.2,29.8z M166.5,45.8
			c-0.9,0-1.7,0.8-1.7,1.7s0.8,1.7,1.7,1.7s1.7-0.8,1.7-1.7S167.4,45.8,166.5,45.8z M149.1,45.8c-0.9,0-1.7,0.8-1.7,1.7
			s0.8,1.7,1.7,1.7c0.9,0,1.7-0.8,1.7-1.7S150,45.8,149.1,45.8z M132.7,45.8c-0.9,0-1.7,0.8-1.7,1.7s0.8,1.7,1.7,1.7
			c0.9,0,1.7-0.8,1.7-1.7S133.6,45.8,132.7,45.8z M117.2,45.8c-0.9,0-1.7,0.8-1.7,1.7s0.8,1.7,1.7,1.7c0.9,0,1.7-0.8,1.7-1.7
			S118.1,45.8,117.2,45.8z M166.5,60.5c-0.9,0-1.7,0.8-1.7,1.7c0,0.9,0.8,1.7,1.7,1.7s1.7-0.8,1.7-1.7
			C168.2,61.2,167.4,60.5,166.5,60.5z M149.1,60.5c-0.9,0-1.7,0.8-1.7,1.7c0,0.9,0.8,1.7,1.7,1.7c0.9,0,1.7-0.8,1.7-1.7
			C150.8,61.2,150,60.5,149.1,60.5z M132.7,60.5c-0.9,0-1.7,0.8-1.7,1.7c0,0.9,0.8,1.7,1.7,1.7c0.9,0,1.7-0.8,1.7-1.7
			C134.4,61.2,133.6,60.5,132.7,60.5z M117.2,60.5c-0.9,0-1.7,0.8-1.7,1.7c0,0.9,0.8,1.7,1.7,1.7c0.9,0,1.7-0.8,1.7-1.7
			C118.9,61.2,118.1,60.5,117.2,60.5z M166.5,75.1c-0.9,0-1.7,0.8-1.7,1.7s0.8,1.7,1.7,1.7s1.7-0.8,1.7-1.7S167.4,75.1,166.5,75.1z
			 M149.1,75.1c-0.9,0-1.7,0.8-1.7,1.7s0.8,1.7,1.7,1.7c0.9,0,1.7-0.8,1.7-1.7S150,75.1,149.1,75.1z M132.7,75.1
			c-0.9,0-1.7,0.8-1.7,1.7s0.8,1.7,1.7,1.7c0.9,0,1.7-0.8,1.7-1.7S133.6,75.1,132.7,75.1z M117.2,75.1c-0.9,0-1.7,0.8-1.7,1.7
			s0.8,1.7,1.7,1.7c0.9,0,1.7-0.8,1.7-1.7S118.1,75.1,117.2,75.1z M100.8,0.5c-0.9,0-1.7,0.8-1.7,1.7c0,0.9,0.8,1.7,1.7,1.7
			c0.9,0,1.7-0.8,1.7-1.7C102.5,1.3,101.7,0.5,100.8,0.5z M85.3,0.5c-0.9,0-1.7,0.8-1.7,1.7c0,0.9,0.8,1.7,1.7,1.7S87,3.1,87,2.2
			C87,1.3,86.3,0.5,85.3,0.5z M68.4,0.5c-0.9,0-1.7,0.8-1.7,1.7c0,0.9,0.8,1.7,1.7,1.7c0.9,0,1.7-0.8,1.7-1.7
			C70.1,1.3,69.3,0.5,68.4,0.5z M51.5,0.5c-0.9,0-1.7,0.8-1.7,1.7c0,0.9,0.8,1.7,1.7,1.7s1.7-0.8,1.7-1.7
			C53.2,1.3,52.4,0.5,51.5,0.5z M34.1,0.5c-0.9,0-1.7,0.8-1.7,1.7c0,0.9,0.8,1.7,1.7,1.7c0.9,0,1.7-0.8,1.7-1.7
			C35.8,1.3,35,0.5,34.1,0.5z M17.7,0.5c-0.9,0-1.7,0.8-1.7,1.7c0,0.9,0.8,1.7,1.7,1.7c0.9,0,1.7-0.8,1.7-1.7
			C19.4,1.3,18.6,0.5,17.7,0.5z M2.2,0.5c-0.9,0-1.7,0.8-1.7,1.7c0,0.9,0.8,1.7,1.7,1.7c0.9,0,1.7-0.8,1.7-1.7
			C3.9,1.3,3.1,0.5,2.2,0.5z M100.8,15.1c-0.9,0-1.7,0.8-1.7,1.7c0,0.9,0.8,1.7,1.7,1.7c0.9,0,1.7-0.8,1.7-1.7
			C102.5,15.9,101.7,15.1,100.8,15.1z M85.3,15.1c-0.9,0-1.7,0.8-1.7,1.7c0,0.9,0.8,1.7,1.7,1.7s1.7-0.8,1.7-1.7
			C87,15.9,86.3,15.1,85.3,15.1z M68.4,15.1c-0.9,0-1.7,0.8-1.7,1.7c0,0.9,0.8,1.7,1.7,1.7c0.9,0,1.7-0.8,1.7-1.7
			C70.1,15.9,69.3,15.1,68.4,15.1z M51.5,15.1c-0.9,0-1.7,0.8-1.7,1.7c0,0.9,0.8,1.7,1.7,1.7s1.7-0.8,1.7-1.7
			C53.2,15.9,52.4,15.1,51.5,15.1z M34.1,15.1c-0.9,0-1.7,0.8-1.7,1.7c0,0.9,0.8,1.7,1.7,1.7c0.9,0,1.7-0.8,1.7-1.7
			C35.8,15.9,35,15.1,34.1,15.1z M17.7,15.1c-0.9,0-1.7,0.8-1.7,1.7c0,0.9,0.8,1.7,1.7,1.7c0.9,0,1.7-0.8,1.7-1.7
			C19.4,15.9,18.6,15.1,17.7,15.1z M2.2,15.1c-0.9,0-1.7,0.8-1.7,1.7c0,0.9,0.8,1.7,1.7,1.7c0.9,0,1.7-0.8,1.7-1.7
			C3.9,15.9,3.1,15.1,2.2,15.1z M100.8,29.8c-0.9,0-1.7,0.8-1.7,1.7c0,0.9,0.8,1.7,1.7,1.7c0.9,0,1.7-0.8,1.7-1.7
			C102.5,30.5,101.7,29.8,100.8,29.8z M85.3,29.8c-0.9,0-1.7,0.8-1.7,1.7c0,0.9,0.8,1.7,1.7,1.7s1.7-0.8,1.7-1.7
			C87,30.5,86.3,29.8,85.3,29.8z M68.4,29.8c-0.9,0-1.7,0.8-1.7,1.7c0,0.9,0.8,1.7,1.7,1.7c0.9,0,1.7-0.8,1.7-1.7
			C70.1,30.5,69.3,29.8,68.4,29.8z M51.5,29.8c-0.9,0-1.7,0.8-1.7,1.7c0,0.9,0.8,1.7,1.7,1.7s1.7-0.8,1.7-1.7
			C53.2,30.5,52.4,29.8,51.5,29.8z M34.1,29.8c-0.9,0-1.7,0.8-1.7,1.7c0,0.9,0.8,1.7,1.7,1.7c0.9,0,1.7-0.8,1.7-1.7
			C35.8,30.5,35,29.8,34.1,29.8z M17.7,29.8c-0.9,0-1.7,0.8-1.7,1.7c0,0.9,0.8,1.7,1.7,1.7c0.9,0,1.7-0.8,1.7-1.7
			C19.4,30.5,18.6,29.8,17.7,29.8z M2.2,29.8c-0.9,0-1.7,0.8-1.7,1.7c0,0.9,0.8,1.7,1.7,1.7c0.9,0,1.7-0.8,1.7-1.7
			C3.9,30.5,3.1,29.8,2.2,29.8z M100.8,45.8c-0.9,0-1.7,0.8-1.7,1.7s0.8,1.7,1.7,1.7c0.9,0,1.7-0.8,1.7-1.7S101.7,45.8,100.8,45.8z
			 M85.3,45.8c-0.9,0-1.7,0.8-1.7,1.7s0.8,1.7,1.7,1.7s1.7-0.8,1.7-1.7S86.3,45.8,85.3,45.8z M68.4,45.8c-0.9,0-1.7,0.8-1.7,1.7
			s0.8,1.7,1.7,1.7c0.9,0,1.7-0.8,1.7-1.7S69.3,45.8,68.4,45.8z M51.5,45.8c-0.9,0-1.7,0.8-1.7,1.7s0.8,1.7,1.7,1.7s1.7-0.8,1.7-1.7
			S52.4,45.8,51.5,45.8z M34.1,45.8c-0.9,0-1.7,0.8-1.7,1.7s0.8,1.7,1.7,1.7c0.9,0,1.7-0.8,1.7-1.7S35,45.8,34.1,45.8z M17.7,45.8
			c-0.9,0-1.7,0.8-1.7,1.7s0.8,1.7,1.7,1.7c0.9,0,1.7-0.8,1.7-1.7S18.6,45.8,17.7,45.8z M2.2,45.8c-0.9,0-1.7,0.8-1.7,1.7
			s0.8,1.7,1.7,1.7c0.9,0,1.7-0.8,1.7-1.7S3.1,45.8,2.2,45.8z M100.8,60.5c-0.9,0-1.7,0.8-1.7,1.7c0,0.9,0.8,1.7,1.7,1.7
			c0.9,0,1.7-0.8,1.7-1.7C102.5,61.2,101.7,60.5,100.8,60.5z M85.3,60.5c-0.9,0-1.7,0.8-1.7,1.7c0,0.9,0.8,1.7,1.7,1.7
			s1.7-0.8,1.7-1.7C87,61.2,86.3,60.5,85.3,60.5z M68.4,60.5c-0.9,0-1.7,0.8-1.7,1.7c0,0.9,0.8,1.7,1.7,1.7c0.9,0,1.7-0.8,1.7-1.7
			C70.1,61.2,69.3,60.5,68.4,60.5z M51.5,60.5c-0.9,0-1.7,0.8-1.7,1.7c0,0.9,0.8,1.7,1.7,1.7s1.7-0.8,1.7-1.7
			C53.2,61.2,52.4,60.5,51.5,60.5z M34.1,60.5c-0.9,0-1.7,0.8-1.7,1.7c0,0.9,0.8,1.7,1.7,1.7c0.9,0,1.7-0.8,1.7-1.7
			C35.8,61.2,35,60.5,34.1,60.5z M17.7,60.5c-0.9,0-1.7,0.8-1.7,1.7c0,0.9,0.8,1.7,1.7,1.7c0.9,0,1.7-0.8,1.7-1.7
			C19.4,61.2,18.6,60.5,17.7,60.5z M2.2,60.5c-0.9,0-1.7,0.8-1.7,1.7c0,0.9,0.8,1.7,1.7,1.7c0.9,0,1.7-0.8,1.7-1.7
			C3.9,61.2,3.1,60.5,2.2,60.5z M100.8,75.1c-0.9,0-1.7,0.8-1.7,1.7s0.8,1.7,1.7,1.7c0.9,0,1.7-0.8,1.7-1.7S101.7,75.1,100.8,75.1z
			 M85.3,75.1c-0.9,0-1.7,0.8-1.7,1.7s0.8,1.7,1.7,1.7s1.7-0.8,1.7-1.7S86.3,75.1,85.3,75.1z M68.4,75.1c-0.9,0-1.7,0.8-1.7,1.7
			s0.8,1.7,1.7,1.7c0.9,0,1.7-0.8,1.7-1.7S69.3,75.1,68.4,75.1z M51.5,75.1c-0.9,0-1.7,0.8-1.7,1.7s0.8,1.7,1.7,1.7s1.7-0.8,1.7-1.7
			S52.4,75.1,51.5,75.1z M34.1,75.1c-0.9,0-1.7,0.8-1.7,1.7s0.8,1.7,1.7,1.7c0.9,0,1.7-0.8,1.7-1.7S35,75.1,34.1,75.1z M17.7,75.1
			c-0.9,0-1.7,0.8-1.7,1.7s0.8,1.7,1.7,1.7c0.9,0,1.7-0.8,1.7-1.7S18.6,75.1,17.7,75.1z M2.2,75.1c-0.9,0-1.7,0.8-1.7,1.7
			s0.8,1.7,1.7,1.7c0.9,0,1.7-0.8,1.7-1.7S3.1,75.1,2.2,75.1z M166.5,90.5c-0.9,0-1.7,0.8-1.7,1.7c0,0.9,0.8,1.7,1.7,1.7
			s1.7-0.8,1.7-1.7C168.2,91.3,167.4,90.5,166.5,90.5z M149.1,90.5c-0.9,0-1.7,0.8-1.7,1.7c0,0.9,0.8,1.7,1.7,1.7
			c0.9,0,1.7-0.8,1.7-1.7C150.8,91.3,150,90.5,149.1,90.5z M132.7,90.5c-0.9,0-1.7,0.8-1.7,1.7c0,0.9,0.8,1.7,1.7,1.7
			c0.9,0,1.7-0.8,1.7-1.7C134.4,91.3,133.6,90.5,132.7,90.5z M117.2,90.5c-0.9,0-1.7,0.8-1.7,1.7c0,0.9,0.8,1.7,1.7,1.7
			c0.9,0,1.7-0.8,1.7-1.7C118.9,91.3,118.1,90.5,117.2,90.5z M166.5,105.1c-0.9,0-1.7,0.8-1.7,1.7c0,0.9,0.8,1.7,1.7,1.7
			s1.7-0.8,1.7-1.7C168.2,105.9,167.4,105.1,166.5,105.1z M149.1,105.1c-0.9,0-1.7,0.8-1.7,1.7c0,0.9,0.8,1.7,1.7,1.7
			c0.9,0,1.7-0.8,1.7-1.7C150.8,105.9,150,105.1,149.1,105.1z M132.7,105.1c-0.9,0-1.7,0.8-1.7,1.7c0,0.9,0.8,1.7,1.7,1.7
			c0.9,0,1.7-0.8,1.7-1.7C134.4,105.9,133.6,105.1,132.7,105.1z M117.2,105.1c-0.9,0-1.7,0.8-1.7,1.7c0,0.9,0.8,1.7,1.7,1.7
			c0.9,0,1.7-0.8,1.7-1.7C118.9,105.9,118.1,105.1,117.2,105.1z M166.5,119.8c-0.9,0-1.7,0.8-1.7,1.7c0,0.9,0.8,1.7,1.7,1.7
			s1.7-0.8,1.7-1.7C168.2,120.5,167.4,119.8,166.5,119.8z M149.1,119.8c-0.9,0-1.7,0.8-1.7,1.7c0,0.9,0.8,1.7,1.7,1.7
			c0.9,0,1.7-0.8,1.7-1.7C150.8,120.5,150,119.8,149.1,119.8z M132.7,119.8c-0.9,0-1.7,0.8-1.7,1.7c0,0.9,0.8,1.7,1.7,1.7
			c0.9,0,1.7-0.8,1.7-1.7C134.4,120.5,133.6,119.8,132.7,119.8z M117.2,119.8c-0.9,0-1.7,0.8-1.7,1.7c0,0.9,0.8,1.7,1.7,1.7
			c0.9,0,1.7-0.8,1.7-1.7C118.9,120.5,118.1,119.8,117.2,119.8z M166.5,135.8c-0.9,0-1.7,0.8-1.7,1.7c0,0.9,0.8,1.7,1.7,1.7
			s1.7-0.8,1.7-1.7C168.2,136.6,167.4,135.8,166.5,135.8z M149.1,135.8c-0.9,0-1.7,0.8-1.7,1.7c0,0.9,0.8,1.7,1.7,1.7
			c0.9,0,1.7-0.8,1.7-1.7C150.8,136.6,150,135.8,149.1,135.8z M132.7,135.8c-0.9,0-1.7,0.8-1.7,1.7c0,0.9,0.8,1.7,1.7,1.7
			c0.9,0,1.7-0.8,1.7-1.7C134.4,136.6,133.6,135.8,132.7,135.8z M117.2,135.8c-0.9,0-1.7,0.8-1.7,1.7c0,0.9,0.8,1.7,1.7,1.7
			c0.9,0,1.7-0.8,1.7-1.7C118.9,136.6,118.1,135.8,117.2,135.8z M166.5,150.5c-0.9,0-1.7,0.8-1.7,1.7c0,0.9,0.8,1.7,1.7,1.7
			s1.7-0.8,1.7-1.7C168.2,151.2,167.4,150.5,166.5,150.5z M149.1,150.5c-0.9,0-1.7,0.8-1.7,1.7c0,0.9,0.8,1.7,1.7,1.7
			c0.9,0,1.7-0.8,1.7-1.7C150.8,151.2,150,150.5,149.1,150.5z M132.7,150.5c-0.9,0-1.7,0.8-1.7,1.7c0,0.9,0.8,1.7,1.7,1.7
			c0.9,0,1.7-0.8,1.7-1.7C134.4,151.2,133.6,150.5,132.7,150.5z M117.2,150.5c-0.9,0-1.7,0.8-1.7,1.7c0,0.9,0.8,1.7,1.7,1.7
			c0.9,0,1.7-0.8,1.7-1.7C118.9,151.2,118.1,150.5,117.2,150.5z M166.5,165.1c-0.9,0-1.7,0.8-1.7,1.7s0.8,1.7,1.7,1.7
			s1.7-0.8,1.7-1.7S167.4,165.1,166.5,165.1z M149.1,165.1c-0.9,0-1.7,0.8-1.7,1.7s0.8,1.7,1.7,1.7c0.9,0,1.7-0.8,1.7-1.7
			S150,165.1,149.1,165.1z M132.7,165.1c-0.9,0-1.7,0.8-1.7,1.7s0.8,1.7,1.7,1.7c0.9,0,1.7-0.8,1.7-1.7S133.6,165.1,132.7,165.1z
			 M117.2,165.1c-0.9,0-1.7,0.8-1.7,1.7s0.8,1.7,1.7,1.7c0.9,0,1.7-0.8,1.7-1.7S118.1,165.1,117.2,165.1z M100.8,90.5
			c-0.9,0-1.7,0.8-1.7,1.7c0,0.9,0.8,1.7,1.7,1.7c0.9,0,1.7-0.8,1.7-1.7C102.5,91.3,101.7,90.5,100.8,90.5z M85.3,90.5
			c-0.9,0-1.7,0.8-1.7,1.7c0,0.9,0.8,1.7,1.7,1.7s1.7-0.8,1.7-1.7C87,91.3,86.3,90.5,85.3,90.5z M68.4,90.5c-0.9,0-1.7,0.8-1.7,1.7
			c0,0.9,0.8,1.7,1.7,1.7c0.9,0,1.7-0.8,1.7-1.7C70.1,91.3,69.3,90.5,68.4,90.5z M51.5,90.5c-0.9,0-1.7,0.8-1.7,1.7
			c0,0.9,0.8,1.7,1.7,1.7s1.7-0.8,1.7-1.7C53.2,91.3,52.4,90.5,51.5,90.5z M34.1,90.5c-0.9,0-1.7,0.8-1.7,1.7c0,0.9,0.8,1.7,1.7,1.7
			c0.9,0,1.7-0.8,1.7-1.7C35.8,91.3,35,90.5,34.1,90.5z M17.7,90.5c-0.9,0-1.7,0.8-1.7,1.7c0,0.9,0.8,1.7,1.7,1.7
			c0.9,0,1.7-0.8,1.7-1.7C19.4,91.3,18.6,90.5,17.7,90.5z M2.2,90.5c-0.9,0-1.7,0.8-1.7,1.7c0,0.9,0.8,1.7,1.7,1.7
			c0.9,0,1.7-0.8,1.7-1.7C3.9,91.3,3.1,90.5,2.2,90.5z M100.8,105.1c-0.9,0-1.7,0.8-1.7,1.7c0,0.9,0.8,1.7,1.7,1.7
			c0.9,0,1.7-0.8,1.7-1.7C102.5,105.9,101.7,105.1,100.8,105.1z M85.3,105.1c-0.9,0-1.7,0.8-1.7,1.7c0,0.9,0.8,1.7,1.7,1.7
			s1.7-0.8,1.7-1.7C87,105.9,86.3,105.1,85.3,105.1z M68.4,105.1c-0.9,0-1.7,0.8-1.7,1.7c0,0.9,0.8,1.7,1.7,1.7
			c0.9,0,1.7-0.8,1.7-1.7C70.1,105.9,69.3,105.1,68.4,105.1z M51.5,105.1c-0.9,0-1.7,0.8-1.7,1.7c0,0.9,0.8,1.7,1.7,1.7
			s1.7-0.8,1.7-1.7C53.2,105.9,52.4,105.1,51.5,105.1z M34.1,105.1c-0.9,0-1.7,0.8-1.7,1.7c0,0.9,0.8,1.7,1.7,1.7
			c0.9,0,1.7-0.8,1.7-1.7C35.8,105.9,35,105.1,34.1,105.1z M17.7,105.1c-0.9,0-1.7,0.8-1.7,1.7c0,0.9,0.8,1.7,1.7,1.7
			c0.9,0,1.7-0.8,1.7-1.7C19.4,105.9,18.6,105.1,17.7,105.1z M2.2,105.1c-0.9,0-1.7,0.8-1.7,1.7c0,0.9,0.8,1.7,1.7,1.7
			c0.9,0,1.7-0.8,1.7-1.7C3.9,105.9,3.1,105.1,2.2,105.1z M100.8,119.8c-0.9,0-1.7,0.8-1.7,1.7c0,0.9,0.8,1.7,1.7,1.7
			c0.9,0,1.7-0.8,1.7-1.7C102.5,120.5,101.7,119.8,100.8,119.8z M85.3,119.8c-0.9,0-1.7,0.8-1.7,1.7c0,0.9,0.8,1.7,1.7,1.7
			s1.7-0.8,1.7-1.7C87,120.5,86.3,119.8,85.3,119.8z M68.4,119.8c-0.9,0-1.7,0.8-1.7,1.7c0,0.9,0.8,1.7,1.7,1.7
			c0.9,0,1.7-0.8,1.7-1.7C70.1,120.5,69.3,119.8,68.4,119.8z M51.5,119.8c-0.9,0-1.7,0.8-1.7,1.7c0,0.9,0.8,1.7,1.7,1.7
			s1.7-0.8,1.7-1.7C53.2,120.5,52.4,119.8,51.5,119.8z M34.1,119.8c-0.9,0-1.7,0.8-1.7,1.7c0,0.9,0.8,1.7,1.7,1.7
			c0.9,0,1.7-0.8,1.7-1.7C35.8,120.5,35,119.8,34.1,119.8z M17.7,119.8c-0.9,0-1.7,0.8-1.7,1.7c0,0.9,0.8,1.7,1.7,1.7
			c0.9,0,1.7-0.8,1.7-1.7C19.4,120.5,18.6,119.8,17.7,119.8z M2.2,119.8c-0.9,0-1.7,0.8-1.7,1.7c0,0.9,0.8,1.7,1.7,1.7
			c0.9,0,1.7-0.8,1.7-1.7C3.9,120.5,3.1,119.8,2.2,119.8z M100.8,135.8c-0.9,0-1.7,0.8-1.7,1.7c0,0.9,0.8,1.7,1.7,1.7
			c0.9,0,1.7-0.8,1.7-1.7C102.5,136.6,101.7,135.8,100.8,135.8z M85.3,135.8c-0.9,0-1.7,0.8-1.7,1.7c0,0.9,0.8,1.7,1.7,1.7
			s1.7-0.8,1.7-1.7C87,136.6,86.3,135.8,85.3,135.8z M68.4,135.8c-0.9,0-1.7,0.8-1.7,1.7c0,0.9,0.8,1.7,1.7,1.7
			c0.9,0,1.7-0.8,1.7-1.7C70.1,136.6,69.3,135.8,68.4,135.8z M51.5,135.8c-0.9,0-1.7,0.8-1.7,1.7c0,0.9,0.8,1.7,1.7,1.7
			s1.7-0.8,1.7-1.7C53.2,136.6,52.4,135.8,51.5,135.8z M34.1,135.8c-0.9,0-1.7,0.8-1.7,1.7c0,0.9,0.8,1.7,1.7,1.7
			c0.9,0,1.7-0.8,1.7-1.7C35.8,136.6,35,135.8,34.1,135.8z M17.7,135.8c-0.9,0-1.7,0.8-1.7,1.7c0,0.9,0.8,1.7,1.7,1.7
			c0.9,0,1.7-0.8,1.7-1.7C19.4,136.6,18.6,135.8,17.7,135.8z M2.2,135.8c-0.9,0-1.7,0.8-1.7,1.7c0,0.9,0.8,1.7,1.7,1.7
			c0.9,0,1.7-0.8,1.7-1.7C3.9,136.6,3.1,135.8,2.2,135.8z M100.8,150.5c-0.9,0-1.7,0.8-1.7,1.7c0,0.9,0.8,1.7,1.7,1.7
			c0.9,0,1.7-0.8,1.7-1.7C102.5,151.2,101.7,150.5,100.8,150.5z M85.3,150.5c-0.9,0-1.7,0.8-1.7,1.7c0,0.9,0.8,1.7,1.7,1.7
			s1.7-0.8,1.7-1.7C87,151.2,86.3,150.5,85.3,150.5z M68.4,150.5c-0.9,0-1.7,0.8-1.7,1.7c0,0.9,0.8,1.7,1.7,1.7
			c0.9,0,1.7-0.8,1.7-1.7C70.1,151.2,69.3,150.5,68.4,150.5z M51.5,150.5c-0.9,0-1.7,0.8-1.7,1.7c0,0.9,0.8,1.7,1.7,1.7
			s1.7-0.8,1.7-1.7C53.2,151.2,52.4,150.5,51.5,150.5z M34.1,150.5c-0.9,0-1.7,0.8-1.7,1.7c0,0.9,0.8,1.7,1.7,1.7
			c0.9,0,1.7-0.8,1.7-1.7C35.8,151.2,35,150.5,34.1,150.5z M17.7,150.5c-0.9,0-1.7,0.8-1.7,1.7c0,0.9,0.8,1.7,1.7,1.7
			c0.9,0,1.7-0.8,1.7-1.7C19.4,151.2,18.6,150.5,17.7,150.5z M2.2,150.5c-0.9,0-1.7,0.8-1.7,1.7c0,0.9,0.8,1.7,1.7,1.7
			c0.9,0,1.7-0.8,1.7-1.7C3.9,151.2,3.1,150.5,2.2,150.5z M100.8,165.1c-0.9,0-1.7,0.8-1.7,1.7s0.8,1.7,1.7,1.7
			c0.9,0,1.7-0.8,1.7-1.7S101.7,165.1,100.8,165.1z M85.3,165.1c-0.9,0-1.7,0.8-1.7,1.7s0.8,1.7,1.7,1.7s1.7-0.8,1.7-1.7
			S86.3,165.1,85.3,165.1z M68.4,165.1c-0.9,0-1.7,0.8-1.7,1.7s0.8,1.7,1.7,1.7c0.9,0,1.7-0.8,1.7-1.7S69.3,165.1,68.4,165.1z
			 M51.5,165.1c-0.9,0-1.7,0.8-1.7,1.7s0.8,1.7,1.7,1.7s1.7-0.8,1.7-1.7S52.4,165.1,51.5,165.1z M34.1,165.1c-0.9,0-1.7,0.8-1.7,1.7
			s0.8,1.7,1.7,1.7c0.9,0,1.7-0.8,1.7-1.7S35,165.1,34.1,165.1z M17.7,165.1c-0.9,0-1.7,0.8-1.7,1.7s0.8,1.7,1.7,1.7
			c0.9,0,1.7-0.8,1.7-1.7S18.6,165.1,17.7,165.1z M2.2,165.1c-0.9,0-1.7,0.8-1.7,1.7s0.8,1.7,1.7,1.7c0.9,0,1.7-0.8,1.7-1.7
			S3.1,165.1,2.2,165.1z M166.5,180.5c-0.9,0-1.7,0.8-1.7,1.7c0,0.9,0.8,1.7,1.7,1.7s1.7-0.8,1.7-1.7
			C168.2,181.3,167.4,180.5,166.5,180.5z M149.1,180.5c-0.9,0-1.7,0.8-1.7,1.7c0,0.9,0.8,1.7,1.7,1.7c0.9,0,1.7-0.8,1.7-1.7
			C150.8,181.3,150,180.5,149.1,180.5z M132.7,180.5c-0.9,0-1.7,0.8-1.7,1.7c0,0.9,0.8,1.7,1.7,1.7c0.9,0,1.7-0.8,1.7-1.7
			C134.4,181.3,133.6,180.5,132.7,180.5z M117.2,180.5c-0.9,0-1.7,0.8-1.7,1.7c0,0.9,0.8,1.7,1.7,1.7c0.9,0,1.7-0.8,1.7-1.7
			C118.9,181.3,118.1,180.5,117.2,180.5z M166.5,195.1c-0.9,0-1.7,0.8-1.7,1.7c0,0.9,0.8,1.7,1.7,1.7s1.7-0.8,1.7-1.7
			C168.2,195.9,167.4,195.1,166.5,195.1z M149.1,195.1c-0.9,0-1.7,0.8-1.7,1.7c0,0.9,0.8,1.7,1.7,1.7c0.9,0,1.7-0.8,1.7-1.7
			C150.8,195.9,150,195.1,149.1,195.1z M132.7,195.1c-0.9,0-1.7,0.8-1.7,1.7c0,0.9,0.8,1.7,1.7,1.7c0.9,0,1.7-0.8,1.7-1.7
			C134.4,195.9,133.6,195.1,132.7,195.1z M117.2,195.1c-0.9,0-1.7,0.8-1.7,1.7c0,0.9,0.8,1.7,1.7,1.7c0.9,0,1.7-0.8,1.7-1.7
			C118.9,195.9,118.1,195.1,117.2,195.1z M166.5,209.8c-0.9,0-1.7,0.8-1.7,1.7c0,0.9,0.8,1.7,1.7,1.7s1.7-0.8,1.7-1.7
			C168.2,210.5,167.4,209.8,166.5,209.8z M149.1,209.8c-0.9,0-1.7,0.8-1.7,1.7c0,0.9,0.8,1.7,1.7,1.7c0.9,0,1.7-0.8,1.7-1.7
			C150.8,210.5,150,209.8,149.1,209.8z M132.7,209.8c-0.9,0-1.7,0.8-1.7,1.7c0,0.9,0.8,1.7,1.7,1.7c0.9,0,1.7-0.8,1.7-1.7
			C134.4,210.5,133.6,209.8,132.7,209.8z M117.2,209.8c-0.9,0-1.7,0.8-1.7,1.7c0,0.9,0.8,1.7,1.7,1.7c0.9,0,1.7-0.8,1.7-1.7
			C118.9,210.5,118.1,209.8,117.2,209.8z M166.5,225.8c-0.9,0-1.7,0.8-1.7,1.7c0,0.9,0.8,1.7,1.7,1.7s1.7-0.8,1.7-1.7
			C168.2,226.6,167.4,225.8,166.5,225.8z M149.1,225.8c-0.9,0-1.7,0.8-1.7,1.7c0,0.9,0.8,1.7,1.7,1.7c0.9,0,1.7-0.8,1.7-1.7
			C150.8,226.6,150,225.8,149.1,225.8z M132.7,225.8c-0.9,0-1.7,0.8-1.7,1.7c0,0.9,0.8,1.7,1.7,1.7c0.9,0,1.7-0.8,1.7-1.7
			C134.4,226.6,133.6,225.8,132.7,225.8z M117.2,225.8c-0.9,0-1.7,0.8-1.7,1.7c0,0.9,0.8,1.7,1.7,1.7c0.9,0,1.7-0.8,1.7-1.7
			C118.9,226.6,118.1,225.8,117.2,225.8z M166.5,240.5c-0.9,0-1.7,0.8-1.7,1.7s0.8,1.7,1.7,1.7s1.7-0.8,1.7-1.7
			S167.4,240.5,166.5,240.5z M149.1,240.5c-0.9,0-1.7,0.8-1.7,1.7s0.8,1.7,1.7,1.7c0.9,0,1.7-0.8,1.7-1.7S150,240.5,149.1,240.5z
			 M132.7,240.5c-0.9,0-1.7,0.8-1.7,1.7s0.8,1.7,1.7,1.7c0.9,0,1.7-0.8,1.7-1.7S133.6,240.5,132.7,240.5z M117.2,240.5
			c-0.9,0-1.7,0.8-1.7,1.7s0.8,1.7,1.7,1.7c0.9,0,1.7-0.8,1.7-1.7S118.1,240.5,117.2,240.5z M166.5,255.1c-0.9,0-1.7,0.8-1.7,1.7
			c0,0.9,0.8,1.7,1.7,1.7s1.7-0.8,1.7-1.7C168.2,255.9,167.4,255.1,166.5,255.1z M149.1,255.1c-0.9,0-1.7,0.8-1.7,1.7
			c0,0.9,0.8,1.7,1.7,1.7c0.9,0,1.7-0.8,1.7-1.7C150.8,255.9,150,255.1,149.1,255.1z M132.7,255.1c-0.9,0-1.7,0.8-1.7,1.7
			c0,0.9,0.8,1.7,1.7,1.7c0.9,0,1.7-0.8,1.7-1.7C134.4,255.9,133.6,255.1,132.7,255.1z M117.2,255.1c-0.9,0-1.7,0.8-1.7,1.7
			c0,0.9,0.8,1.7,1.7,1.7c0.9,0,1.7-0.8,1.7-1.7C118.9,255.9,118.1,255.1,117.2,255.1z M100.8,180.5c-0.9,0-1.7,0.8-1.7,1.7
			c0,0.9,0.8,1.7,1.7,1.7c0.9,0,1.7-0.8,1.7-1.7C102.5,181.3,101.7,180.5,100.8,180.5z M85.3,180.5c-0.9,0-1.7,0.8-1.7,1.7
			c0,0.9,0.8,1.7,1.7,1.7s1.7-0.8,1.7-1.7C87,181.3,86.3,180.5,85.3,180.5z M68.4,180.5c-0.9,0-1.7,0.8-1.7,1.7
			c0,0.9,0.8,1.7,1.7,1.7c0.9,0,1.7-0.8,1.7-1.7C70.1,181.3,69.3,180.5,68.4,180.5z M51.5,180.5c-0.9,0-1.7,0.8-1.7,1.7
			c0,0.9,0.8,1.7,1.7,1.7s1.7-0.8,1.7-1.7C53.2,181.3,52.4,180.5,51.5,180.5z M34.1,180.5c-0.9,0-1.7,0.8-1.7,1.7
			c0,0.9,0.8,1.7,1.7,1.7c0.9,0,1.7-0.8,1.7-1.7C35.8,181.3,35,180.5,34.1,180.5z M17.7,180.5c-0.9,0-1.7,0.8-1.7,1.7
			c0,0.9,0.8,1.7,1.7,1.7c0.9,0,1.7-0.8,1.7-1.7C19.4,181.3,18.6,180.5,17.7,180.5z M2.2,180.5c-0.9,0-1.7,0.8-1.7,1.7
			c0,0.9,0.8,1.7,1.7,1.7c0.9,0,1.7-0.8,1.7-1.7C3.9,181.3,3.1,180.5,2.2,180.5z M100.8,195.1c-0.9,0-1.7,0.8-1.7,1.7
			c0,0.9,0.8,1.7,1.7,1.7c0.9,0,1.7-0.8,1.7-1.7C102.5,195.9,101.7,195.1,100.8,195.1z M85.3,195.1c-0.9,0-1.7,0.8-1.7,1.7
			c0,0.9,0.8,1.7,1.7,1.7s1.7-0.8,1.7-1.7C87,195.9,86.3,195.1,85.3,195.1z M68.4,195.1c-0.9,0-1.7,0.8-1.7,1.7
			c0,0.9,0.8,1.7,1.7,1.7c0.9,0,1.7-0.8,1.7-1.7C70.1,195.9,69.3,195.1,68.4,195.1z M51.5,195.1c-0.9,0-1.7,0.8-1.7,1.7
			c0,0.9,0.8,1.7,1.7,1.7s1.7-0.8,1.7-1.7C53.2,195.9,52.4,195.1,51.5,195.1z M34.1,195.1c-0.9,0-1.7,0.8-1.7,1.7
			c0,0.9,0.8,1.7,1.7,1.7c0.9,0,1.7-0.8,1.7-1.7C35.8,195.9,35,195.1,34.1,195.1z M17.7,195.1c-0.9,0-1.7,0.8-1.7,1.7
			c0,0.9,0.8,1.7,1.7,1.7c0.9,0,1.7-0.8,1.7-1.7C19.4,195.9,18.6,195.1,17.7,195.1z M2.2,195.1c-0.9,0-1.7,0.8-1.7,1.7
			c0,0.9,0.8,1.7,1.7,1.7c0.9,0,1.7-0.8,1.7-1.7C3.9,195.9,3.1,195.1,2.2,195.1z M100.8,209.8c-0.9,0-1.7,0.8-1.7,1.7
			c0,0.9,0.8,1.7,1.7,1.7c0.9,0,1.7-0.8,1.7-1.7C102.5,210.5,101.7,209.8,100.8,209.8z M85.3,209.8c-0.9,0-1.7,0.8-1.7,1.7
			c0,0.9,0.8,1.7,1.7,1.7s1.7-0.8,1.7-1.7C87,210.5,86.3,209.8,85.3,209.8z M68.4,209.8c-0.9,0-1.7,0.8-1.7,1.7
			c0,0.9,0.8,1.7,1.7,1.7c0.9,0,1.7-0.8,1.7-1.7C70.1,210.5,69.3,209.8,68.4,209.8z M51.5,209.8c-0.9,0-1.7,0.8-1.7,1.7
			c0,0.9,0.8,1.7,1.7,1.7s1.7-0.8,1.7-1.7C53.2,210.5,52.4,209.8,51.5,209.8z M34.1,209.8c-0.9,0-1.7,0.8-1.7,1.7
			c0,0.9,0.8,1.7,1.7,1.7c0.9,0,1.7-0.8,1.7-1.7C35.8,210.5,35,209.8,34.1,209.8z M17.7,209.8c-0.9,0-1.7,0.8-1.7,1.7
			c0,0.9,0.8,1.7,1.7,1.7c0.9,0,1.7-0.8,1.7-1.7C19.4,210.5,18.6,209.8,17.7,209.8z M2.2,209.8c-0.9,0-1.7,0.8-1.7,1.7
			c0,0.9,0.8,1.7,1.7,1.7c0.9,0,1.7-0.8,1.7-1.7C3.9,210.5,3.1,209.8,2.2,209.8z M100.8,225.8c-0.9,0-1.7,0.8-1.7,1.7
			c0,0.9,0.8,1.7,1.7,1.7c0.9,0,1.7-0.8,1.7-1.7C102.5,226.6,101.7,225.8,100.8,225.8z M85.3,225.8c-0.9,0-1.7,0.8-1.7,1.7
			c0,0.9,0.8,1.7,1.7,1.7s1.7-0.8,1.7-1.7C87,226.6,86.3,225.8,85.3,225.8z M68.4,225.8c-0.9,0-1.7,0.8-1.7,1.7
			c0,0.9,0.8,1.7,1.7,1.7c0.9,0,1.7-0.8,1.7-1.7C70.1,226.6,69.3,225.8,68.4,225.8z M51.5,225.8c-0.9,0-1.7,0.8-1.7,1.7
			c0,0.9,0.8,1.7,1.7,1.7s1.7-0.8,1.7-1.7C53.2,226.6,52.4,225.8,51.5,225.8z M34.1,225.8c-0.9,0-1.7,0.8-1.7,1.7
			c0,0.9,0.8,1.7,1.7,1.7c0.9,0,1.7-0.8,1.7-1.7C35.8,226.6,35,225.8,34.1,225.8z M17.7,225.8c-0.9,0-1.7,0.8-1.7,1.7
			c0,0.9,0.8,1.7,1.7,1.7c0.9,0,1.7-0.8,1.7-1.7C19.4,226.6,18.6,225.8,17.7,225.8z M2.2,225.8c-0.9,0-1.7,0.8-1.7,1.7
			c0,0.9,0.8,1.7,1.7,1.7c0.9,0,1.7-0.8,1.7-1.7C3.9,226.6,3.1,225.8,2.2,225.8z M100.8,240.5c-0.9,0-1.7,0.8-1.7,1.7
			s0.8,1.7,1.7,1.7c0.9,0,1.7-0.8,1.7-1.7S101.7,240.5,100.8,240.5z M85.3,240.5c-0.9,0-1.7,0.8-1.7,1.7s0.8,1.7,1.7,1.7
			s1.7-0.8,1.7-1.7S86.3,240.5,85.3,240.5z M68.4,240.5c-0.9,0-1.7,0.8-1.7,1.7s0.8,1.7,1.7,1.7c0.9,0,1.7-0.8,1.7-1.7
			S69.3,240.5,68.4,240.5z M51.5,240.5c-0.9,0-1.7,0.8-1.7,1.7s0.8,1.7,1.7,1.7s1.7-0.8,1.7-1.7S52.4,240.5,51.5,240.5z M34.1,240.5
			c-0.9,0-1.7,0.8-1.7,1.7s0.8,1.7,1.7,1.7c0.9,0,1.7-0.8,1.7-1.7S35,240.5,34.1,240.5z M17.7,240.5c-0.9,0-1.7,0.8-1.7,1.7
			s0.8,1.7,1.7,1.7c0.9,0,1.7-0.8,1.7-1.7S18.6,240.5,17.7,240.5z M2.2,240.5c-0.9,0-1.7,0.8-1.7,1.7s0.8,1.7,1.7,1.7
			c0.9,0,1.7-0.8,1.7-1.7S3.1,240.5,2.2,240.5z M100.8,255.1c-0.9,0-1.7,0.8-1.7,1.7c0,0.9,0.8,1.7,1.7,1.7c0.9,0,1.7-0.8,1.7-1.7
			C102.5,255.9,101.7,255.1,100.8,255.1z M85.3,255.1c-0.9,0-1.7,0.8-1.7,1.7c0,0.9,0.8,1.7,1.7,1.7s1.7-0.8,1.7-1.7
			C87,255.9,86.3,255.1,85.3,255.1z M68.4,255.1c-0.9,0-1.7,0.8-1.7,1.7c0,0.9,0.8,1.7,1.7,1.7c0.9,0,1.7-0.8,1.7-1.7
			C70.1,255.9,69.3,255.1,68.4,255.1z M51.5,255.1c-0.9,0-1.7,0.8-1.7,1.7c0,0.9,0.8,1.7,1.7,1.7s1.7-0.8,1.7-1.7
			C53.2,255.9,52.4,255.1,51.5,255.1z M34.1,255.1c-0.9,0-1.7,0.8-1.7,1.7c0,0.9,0.8,1.7,1.7,1.7c0.9,0,1.7-0.8,1.7-1.7
			C35.8,255.9,35,255.1,34.1,255.1z M17.7,255.1c-0.9,0-1.7,0.8-1.7,1.7c0,0.9,0.8,1.7,1.7,1.7c0.9,0,1.7-0.8,1.7-1.7
			C19.4,255.9,18.6,255.1,17.7,255.1z M2.2,255.1c-0.9,0-1.7,0.8-1.7,1.7c0,0.9,0.8,1.7,1.7,1.7c0.9,0,1.7-0.8,1.7-1.7
			C3.9,255.9,3.1,255.1,2.2,255.1z M166.5,270.5c-0.9,0-1.7,0.8-1.7,1.7c0,0.9,0.8,1.7,1.7,1.7s1.7-0.8,1.7-1.7
			C168.2,271.3,167.4,270.5,166.5,270.5z M149.1,270.5c-0.9,0-1.7,0.8-1.7,1.7c0,0.9,0.8,1.7,1.7,1.7c0.9,0,1.7-0.8,1.7-1.7
			C150.8,271.3,150,270.5,149.1,270.5z M132.7,270.5c-0.9,0-1.7,0.8-1.7,1.7c0,0.9,0.8,1.7,1.7,1.7c0.9,0,1.7-0.8,1.7-1.7
			C134.4,271.3,133.6,270.5,132.7,270.5z M117.2,270.5c-0.9,0-1.7,0.8-1.7,1.7c0,0.9,0.8,1.7,1.7,1.7c0.9,0,1.7-0.8,1.7-1.7
			C118.9,271.3,118.1,270.5,117.2,270.5z M100.8,270.5c-0.9,0-1.7,0.8-1.7,1.7c0,0.9,0.8,1.7,1.7,1.7c0.9,0,1.7-0.8,1.7-1.7
			C102.5,271.3,101.7,270.5,100.8,270.5z M85.3,270.5c-0.9,0-1.7,0.8-1.7,1.7c0,0.9,0.8,1.7,1.7,1.7s1.7-0.8,1.7-1.7
			C87,271.3,86.3,270.5,85.3,270.5z M68.4,270.5c-0.9,0-1.7,0.8-1.7,1.7c0,0.9,0.8,1.7,1.7,1.7c0.9,0,1.7-0.8,1.7-1.7
			C70.1,271.3,69.3,270.5,68.4,270.5z M51.5,270.5c-0.9,0-1.7,0.8-1.7,1.7c0,0.9,0.8,1.7,1.7,1.7s1.7-0.8,1.7-1.7
			C53.2,271.3,52.4,270.5,51.5,270.5z M34.1,270.5c-0.9,0-1.7,0.8-1.7,1.7c0,0.9,0.8,1.7,1.7,1.7c0.9,0,1.7-0.8,1.7-1.7
			C35.8,271.3,35,270.5,34.1,270.5z M17.7,270.5c-0.9,0-1.7,0.8-1.7,1.7c0,0.9,0.8,1.7,1.7,1.7c0.9,0,1.7-0.8,1.7-1.7
			C19.4,271.3,18.6,270.5,17.7,270.5z M2.2,270.5c-0.9,0-1.7,0.8-1.7,1.7c0,0.9,0.8,1.7,1.7,1.7c0.9,0,1.7-0.8,1.7-1.7
			C3.9,271.3,3.1,270.5,2.2,270.5z"/>
	</g>
</g>
</svg>
