<?xml version="1.0" encoding="utf-8"?>
<!-- Generator: Adobe Illustrator 22.1.0, SVG Export Plug-In . SVG Version: 6.00 Build 0)  -->
<svg version="1.1" id="b33613f3-47b2-4fb7-9d5b-ca5c70d6619d"
	 xmlns="http://www.w3.org/2000/svg" xmlns:xlink="http://www.w3.org/1999/xlink" x="0px" y="0px" viewBox="0 0 863 826.7"
	 style="enable-background:new 0 0 863 826.7;" xml:space="preserve">
<style type="text/css">
	.st0{fill:#F2F2F2;}
	.st1{fill:#3F3D56;}
	.st2{opacity:0.1;enable-background:new    ;}
	.st3{fill:#2F2E41;}
	.st4{fill:#FFB9B9;}
	.st5{fill:#D0CDE1;}
	.st6{fill:#39AD6A;}
	.st7{display:none;}
	.st8{display:inline;}
	.st9{fill:none;}
	.st10{display:inline;fill:#39AD6A;}
	.st11{display:inline;opacity:0.44;}
</style>
<title>laravel and vue</title>
<path class="st0" d="M740.1,324.3C695.2,153.5,540,30.2,357.8,25.3c-96.3-2.6-197.7,28.3-271.4,136.4
	c-131.9,193.2,8.1,326.7,105.7,390.2c47.2,30.7,89.6,67.6,126.2,109.7c65.9,75.7,192.8,169.7,343.8,22.4
	C771.6,577.1,770,438.1,740.1,324.3z"/>
<path class="st1" d="M862,694.1c0,38.3-189.2,109.5-427.5,109.5S0,736.8,0,698.5s196.2-33.6,434.5-33.6S862,655.8,862,694.1z"/>
<path class="st2" d="M862,694.1c0,38.3-189.2,109.5-427.5,109.5S0,736.8,0,698.5s196.2-33.6,434.5-33.6S862,655.8,862,694.1z"/>
<ellipse class="st1" cx="431.5" cy="698" rx="431.5" ry="69.3"/>
<polygon class="st3" points="594.9,440.2 594.9,650.2 630,707.4 632.6,711.8 771.2,711.8 774,440.2 "/>
<polygon class="st2" points="594.9,440.2 594.9,650.2 630,707.4 632.1,440.2 "/>
<polygon class="st3" points="260.3,434.6 260.3,644.6 225.2,701.8 222.6,706.2 84,706.2 81.2,434.6 "/>
<polygon class="st2" points="260.3,434.6 260.3,644.6 225.2,701.8 223.1,434.6 "/>
<polygon class="st3" points="816,430.4 816,443 63,443 63,424.8 133,388.5 754.4,388.5 "/>
<polygon class="st2" points="816,430.4 816,443 63,443 63,424.8 "/>
<polygon class="st2" points="170.8,493.4 137.2,493.4 123.2,483.6 186.2,483.6 "/>
<polygon class="st2" points="170.8,534 137.2,534 123.2,524.2 186.2,524.2 "/>
<polygon class="st2" points="170.8,591.4 137.2,591.4 123.2,581.6 186.2,581.6 "/>
<polygon class="st2" points="170.8,648.8 137.2,648.8 123.2,639 186.2,639 "/>
<polygon class="st2" points="684.4,499 718,499 732,489.2 669,489.2 "/>
<polygon class="st2" points="684.4,539.6 718,539.6 732,529.8 669,529.8 "/>
<polygon class="st2" points="684.4,597 718,597 732,587.2 669,587.2 "/>
<polygon class="st2" points="684.4,654.4 718,654.4 732,644.6 669,644.6 "/>
<path class="st1" d="M532.5,353.4l-4.7,29.8c0,0-23,12.2-6.8,12.6s92.3,0,92.3,0s14.7,0-8.6-12.9l-4.7-31.2L532.5,353.4z"/>
<path class="st2" d="M517.8,395.5c3.1-2.5,6.5-4.8,10.1-6.7l4.7-29.8l67.5,0.1l4.7,29.4c3.8,2,7.5,4.4,10.8,7.1
	c3-0.7,6.3-3.2-10.8-12.7l-4.7-31.2l-67.5,1.8l-4.7,29.8C527.8,383.2,508.5,393.5,517.8,395.5z"/>
<path class="st1" d="M424.5,145.7h282.8c5.9,0,10.7,4.8,10.7,10.7v190.5c0,5.9-4.8,10.7-10.7,10.7H424.5c-5.9,0-10.7-4.8-10.7-10.7
	V156.4C413.8,150.5,418.6,145.7,424.5,145.7z"/>
<rect x="424.1" y="157" class="st0" width="283.7" height="158.7"/>
<circle class="st0" cx="565.9" cy="152" r="1.8"/>
<path class="st1" d="M718,328.3v18.6c0,5.9-4.8,10.7-10.7,10.7l0,0H424.5c-5.9,0-10.7-4.8-10.7-10.7l0,0v-18.6H718z"/>
<circle class="st0" cx="565.9" cy="343" r="6.8"/>
<polygon class="st1" points="555.3,415.2 555.3,418.8 362.1,418.8 362.1,415.9 362.3,415.2 367.1,402.3 551.3,402.3 "/>
<path class="st1" d="M629.6,411.7c-0.4,1.5-1.7,3.1-4.7,4.6c-10.8,5.4-32.7-1.4-32.7-1.4s-16.9-2.9-16.9-10.4c0.5-0.3,1-0.6,1.5-0.9
	c4.5-2.4,19.5-8.3,46.2,0.3c2,0.6,3.7,1.8,5.1,3.3C629.3,408.3,629.9,410,629.6,411.7z"/>
<path class="st2" d="M629.6,411.7c-13.2,5.1-24.9,5.4-37-2.9c-6.1-4.2-11.6-5.3-15.8-5.2c4.5-2.4,19.5-8.3,46.2,0.3
	c2,0.6,3.7,1.8,5.1,3.3C629.3,408.3,629.9,410,629.6,411.7z"/>
<ellipse class="st0" cx="613.1" cy="407.3" rx="4.7" ry="1.4"/>
<polygon class="st2" points="555.3,415.2 555.3,418.8 362.1,418.8 362.1,415.9 362.3,415.2 "/>
<circle class="st4" cx="394.6" cy="155.9" r="38.2"/>
<path class="st4" d="M366.5,175v60.4h62.4c0,0-8.1-50.3-4-65.4L366.5,175z"/>
<path class="st5" d="M490.3,256.5c0,0-59.4-29.2-59.4-31.2s-6-15.1-10.1-15.1s-38.2-11.1-57.4,5l-2,13.1L288,276.7l20.1,73.5
	c0,0,13.1,14.1,9.1,24.2s3,61.4,3,61.4l158-5v-68.4c0,0,5-16.1,8.1-21.1s0-20.1,0-20.1l24.2-30.2
	C510.4,290.8,507.4,262.6,490.3,256.5z"/>
<path class="st2" d="M290.5,301.3l4.5-24.7c0,0-26.2,113.7-23.1,126.8s25.2,33.2,28.2,34.2s31.2-86.6,31.2-86.6L290.5,301.3z"/>
<path class="st5" d="M305.1,273.7l-17.1,3c0,0-26.2,113.7-23.1,126.8s25.2,33.2,28.2,34.2s31.2-86.6,31.2-86.6L305.1,273.7z"/>
<path class="st2" d="M495.8,307.4l8.6-16.6c0,0,12.1,113.7,4,124.8s-39.9,15.2-39.9,15.2l-0.4-82.6L495.8,307.4z"/>
<path class="st5" d="M497.3,277.7l13.1,13.1c0,0,12.1,113.7,4,124.8s-39.9,15.2-39.9,15.2l-0.4-82.6L497.3,277.7z"/>
<path class="st1" d="M302,450.8c0,0-29.2-11.1-34.2,10.1s12.1,115.7,12.1,115.7s11.1,71.5,18.1,73.5s38.2,3,43.3-6
	s-15.1-101.7-15.1-101.7l116.8-2c0,0-7,80.5-11.1,87.6s-4,31.2,0,31.2s48.3-2,51.3-8.1s20.1-141.9,20.1-141.9s14.1-47.3-2-44.3
	S302,450.8,302,450.8z"/>
<path class="st3" d="M474.2,647.1c0,0,10.1-7,15.1,0s7,15.1-15.1,27.2s-39.3,9.1-39.3,7v-29.2L474.2,647.1z"/>
<path class="st3" d="M300,644c0,0-10.1-7-15.1,0s-7,15.1,15.1,27.2s39.3,9.1,39.3,7V649L300,644z"/>
<path class="st3" d="M394.9,107.7c-3.8-0.1-7.6,0.4-11.2,1.6c-2.8,1.1-5.5,2.5-8,4.2L358.8,124c-2.9,1.3-4.8,4.2-4.8,7.4l-2.1,15.8
	c-0.5,4-1,8.3,0.8,11.9c1.5,3,4.3,5.1,6.7,7.5c3.7,3.9,6.3,8.8,7.2,14.1c1.2,6.6,0.4,14.5,5.7,18.8c2.8,2.3,6.7,2.7,10.3,2.9
	c9.9,0.6,19.9,0.2,29.7-1.1c1.6-0.1,3.1-0.5,4.5-1.3c1.8-1,2.9-2.9,3.9-4.7c3.8-6.4,7.7-13.2,7.6-20.7c0-3.7-1-7.6,0.8-10.9
	c0.9-1.4,1.9-2.7,3-3.9c2.2-3.1,2.6-7,3-10.8c1.1-12-0.1-21.1-8.9-29.6C417.9,111.4,406.2,107.7,394.9,107.7z"/>
<polygon class="st3" points="300.9,569.7 267.3,740.5 284.1,740.5 316.3,572.5 "/>
<polygon class="st3" points="408.7,583.7 429.7,779.6 443.7,779.6 431.1,578.1 "/>
<polygon class="st3" points="466.1,578.1 495.5,708.3 509.5,708.3 481.5,575.3 "/>
<polygon class="st3" points="354.1,578.1 349.9,681.7 361.1,681.7 369.5,578.1 "/>
<path class="st6" d="M277.1,551.5c0,0-22.4-149.8,40.6-154s152.6,0,152.6,0s51.8-4.2,36.4,154c0,0,14,46.2-112,42
	S277.1,551.5,277.1,551.5z"/>
<path class="st6" d="M199.5,307.2c0,26.1-15.5,35.2-34.7,35.2s-34.7-9.1-34.7-35.2s34.7-59.3,34.7-59.3S199.5,281.1,199.5,307.2z"/>
<polygon class="st1" points="163.9,316.6 178.7,289.5 164,313.1 164.2,303.3 174.3,283.7 164.2,300.7 164.5,283 175.4,267.5 
	164.5,280.3 164.7,247.8 163.6,288.9 152.6,272 163.5,292.4 162.5,312.1 162.4,311.6 149.7,293.7 162.4,313.4 162.3,315.9 
	162.2,315.9 162.3,316.1 159.6,342.5 163.1,342.5 163.6,340.4 176.3,320.7 163.6,338.4 "/>
<polygon class="st3" points="187,399.1 145.7,399.1 135,338.7 195.4,338.7 "/>
<g id="logo" class="st7">
	<g class="st8">
		<path class="st6" d="M568.7,225.6c1.3,0,2.3-1,2.3-2.3s-1-2.3-2.3-2.3h-6.4c-1.3,0-2.3,1-2.3,2.3s1,2.3,2.3,2.3H568.7z"/>
		<path class="st6" d="M565.5,197c1.3,0,2.3-1,2.3-2.3v-6.4c0-1.3-1-2.3-2.3-2.3s-2.3,1-2.3,2.3v6.4C563.1,196,564.2,197,565.5,197z
			"/>
		<path class="st6" d="M543.6,204.6c0.9,0.9,2.4,0.9,3.3,0s0.9-2.4,0-3.3l-4.5-4.5c-0.9-0.9-2.4-0.9-3.3,0s-0.9,2.4,0,3.3
			L543.6,204.6z"/>
		<path class="st6" d="M587.3,204.6l4.5-4.5c0.9-0.9,0.9-2.4,0-3.3s-2.4-0.9-3.3,0l-4.5,4.5c-0.9,0.9-0.9,2.4,0,3.3
			S586.4,205.5,587.3,204.6z"/>
		<path class="st6" d="M593.5,218.7c-0.9-1-1.8-1.9-2.8-2.7l0,0c-6.8-5.8-15.6-9.4-25.2-9.4s-18.5,3.5-25.2,9.4l0,0
			c-1,0.9-1.9,1.8-2.8,2.7c-1.3,1.4-2.5,2.9-3.7,4.5l0,0c0,3.1,0.5,6.1,1.3,9c3.9,13.1,16,22.7,30.5,22.7c7.7,0,14.7-2.7,20.2-7.3
			c1.3-1,1.3-2.9,0.2-4.1c-1-1-2.6-1.1-3.7-0.2c-4.5,3.8-10.4,6-16.7,6c-12,0-22.1-8-25.2-19c-0.5-1.7-0.8-3.6-0.9-5.4
			c0.5-0.6,1-1.2,1.5-1.8c6.1-6.8,14.9-11,24.7-11s18.6,4.3,24.7,11c-6.1,6.8-14.9,11-24.7,11c-2.8,0-5.5-0.4-8.2-1
			c-0.9-0.2-1.9,0-2.6,0.7c-1.5,1.5-0.8,4.1,1.3,4.6c3,0.8,6.2,1.2,9.5,1.2c9.6,0,18.5-3.5,25.2-9.4c1-0.9,1.9-1.8,2.8-2.7
			c1.3-1.4,2.5-2.9,3.7-4.5C596.1,221.6,594.9,220.1,593.5,218.7z"/>
	</g>
	<g class="st8">
		<path class="st6" d="M581.6,268.3h-17.9c-0.4,0-0.7-0.3-0.7-0.7l0,0c0-0.4,0.3-0.7,0.7-0.7h17.9c0.2,0,2.1-0.1,2.4-1.9
			c0.1-0.3,0.4-0.6,0.7-0.6l0,0c0.4,0,0.8,0.4,0.7,0.8C585,267.7,582.8,268.3,581.6,268.3z"/>
	</g>
	<g class="st8">
		<path class="st6" d="M559.9,268.3h-2.5c-0.4,0-0.7-0.3-0.7-0.7l0,0c0-0.4,0.3-0.7,0.7-0.7h2.5c2.4,0,2.5-2.2,2.5-2.5
			c0-1.4-1.1-2.5-2.5-2.5h-4v2.5c0,1.3-0.8,3.9-3.9,3.9h-2.5c-0.4,0-0.7-0.3-0.7-0.7l0,0c0-0.4,0.3-0.7,0.7-0.7h2.5
			c2.4,0,2.5-2.2,2.5-2.5v-3.9h5.4c2.1,0,3.9,1.7,3.9,3.9C563.7,265.8,562.9,268.3,559.9,268.3z"/>
	</g>
	<g class="st8">
		<path class="st6" d="M536.2,268.3h-2.5c-0.4,0-0.7-0.3-0.7-0.7l0,0c0-0.4,0.3-0.7,0.7-0.7h2.5c2.4,0,2.5-2.2,2.5-2.5V262
			c0-0.4,0.3-0.7,0.7-0.7l0,0c0.4,0,0.7,0.3,0.7,0.7v2.5C540,265.8,539.2,268.3,536.2,268.3z"/>
	</g>
	<g class="st8">
		<path class="st6" d="M545.6,268.3h-3.9v-12.6c0-0.4,0.3-0.7,0.7-0.7l0,0c0.4,0,0.7,0.3,0.7,0.7v11.2h2.5c2.4,0,2.5-2.2,2.5-2.5
			V262c0-0.4,0.3-0.7,0.7-0.7l0,0c0.4,0,0.7,0.3,0.7,0.7v2.5C549.5,265.8,548.7,268.3,545.6,268.3z"/>
	</g>
	<g class="st8">
		<line class="st9" x1="548.8" y1="255" x2="548.8" y2="258.1"/>
		<path class="st6" d="M548.8,258.1L548.8,258.1c-0.4,0-0.7-0.3-0.7-0.7v-1.8c0-0.4,0.3-0.7,0.7-0.7l0,0c0.4,0,0.7,0.3,0.7,0.7v1.8
			C549.5,257.8,549.2,258.1,548.8,258.1z"/>
	</g>
	<g class="st8">
		<line class="st9" x1="555.1" y1="270.8" x2="548.8" y2="270.8"/>
		<path class="st6" d="M554.4,271.5h-4.9c-0.4,0-0.7-0.3-0.7-0.7l0,0c0-0.4,0.3-0.7,0.7-0.7h4.9c0.4,0,0.7,0.3,0.7,0.7l0,0
			C555.1,271.2,554.8,271.5,554.4,271.5z"/>
	</g>
	<g class="st8">
		<line class="st9" x1="593.5" y1="270.8" x2="587.2" y2="270.8"/>
		<path class="st6" d="M592.8,271.5h-4.9c-0.4,0-0.7-0.3-0.7-0.7l0,0c0-0.4,0.3-0.7,0.7-0.7h4.9c0.4,0,0.7,0.3,0.7,0.7l0,0
			C593.5,271.2,593.2,271.5,592.8,271.5z"/>
	</g>
	<g class="st8">
		<line class="st9" x1="597.2" y1="255" x2="597.2" y2="267.6"/>
		<path class="st6" d="M597.2,267.6L597.2,267.6c-0.4,0-0.7-0.3-0.7-0.7v-11.2c0-0.4,0.3-0.7,0.7-0.7l0,0c0.4,0,0.7,0.3,0.7,0.7
			v11.2C597.9,267.3,597.6,267.6,597.2,267.6z"/>
	</g>
	<path class="st10" d="M584.7,267.6c0-0.4,0.3-0.7,0.7-0.7h5.6c0.2,0,2.5-0.1,2.5-2.5h1.4c0,3.1-2.5,3.9-3.9,3.9h-5.6
		C585.1,268.3,584.7,268,584.7,267.6L584.7,267.6z"/>
	<path class="st10" d="M594.9,264.5v-3.2c0-0.4-0.3-0.7-0.7-0.7l0,0c-0.4,0-0.7,0.3-0.7,0.7v3.2H594.9z"/>
	<g class="st11">
		<path class="st6" d="M536.3,276.2c-0.1,0-0.2,0-0.3,0s-0.1-0.1-0.2-0.1v0.2c0,0.2,0,0.3-0.1,0.4s-0.2,0.2-0.4,0.3
			c-0.1,0.1-0.3,0.2-0.5,0.2c-0.2,0.1-0.3,0.1-0.5,0.1c-0.1,0-0.3,0-0.4-0.1c-0.1,0-0.2-0.1-0.3-0.2s-0.2-0.2-0.2-0.3
			c-0.1-0.1-0.1-0.3-0.1-0.4s0-0.2,0-0.3c0-0.1,0.1-0.2,0.1-0.3c0-0.1,0.1-0.2,0.1-0.3c0-0.1,0.1-0.2,0.1-0.3l0.5,0.3
			c0,0,0,0.1-0.1,0.2c0,0.1,0,0.1-0.1,0.2c0,0.1,0,0.1-0.1,0.2c0,0.1,0,0.1,0,0.2s0,0.1,0,0.2s0.1,0.1,0.1,0.1s0.1,0.1,0.2,0.1
			c0.1,0,0.1,0,0.2,0c0.1,0,0.1,0,0.2,0c0.1,0,0.1,0,0.2,0c0.1,0,0.1,0,0.2,0c0.1,0,0.1,0,0.2-0.1L535,275l0.7-0.3
			c0,0.1,0,0.3,0.1,0.4c0,0.1,0,0.2,0,0.3h0.5h0.7c0.1,0,0.2,0,0.3,0.1s0.1,0.2,0.1,0.3c0,0.1,0,0.2-0.1,0.3
			c-0.1,0.1-0.2,0.1-0.3,0.1L536.3,276.2L536.3,276.2z M533.9,274.6l0.3-0.6l0.6,0.3l-0.3,0.6L533.9,274.6z"/>
		<path class="st6" d="M538.6,275.3l-0.2-1.1l0.8-0.3c0,0.1,0,0.2,0.1,0.4c0,0.1,0,0.3,0.1,0.4c0,0.1,0,0.2,0,0.3c0,0.1,0,0.2,0,0.3
			c0,0.2,0,0.4-0.1,0.5s-0.2,0.2-0.3,0.3c-0.1,0.1-0.3,0.1-0.4,0.1c-0.2,0-0.3,0-0.5,0h-0.9l0,0c-0.1,0-0.2,0-0.3-0.1
			s-0.1-0.2-0.1-0.3c0-0.1,0-0.2,0.1-0.3c0.1-0.1,0.2-0.1,0.3-0.1l0,0h0.7L538.6,275.3L538.6,275.3z M537,277.6l0.3-0.7l0.7,0.3
			l-0.3,0.7L537,277.6z M537.9,277.4l0.3-0.7l0.7,0.3l-0.3,0.7L537.9,277.4z"/>
		<path class="st6" d="M542.5,276.2c-0.2,0-0.3,0-0.5-0.1c-0.1,0-0.2-0.1-0.3-0.2c-0.1,0.1-0.2,0.2-0.3,0.3
			c-0.1,0.1-0.2,0.2-0.4,0.3c-0.1,0.1-0.3,0.2-0.4,0.2c-0.2,0.1-0.3,0.1-0.5,0.1l-0.3-0.8c0.1,0,0.2,0,0.3-0.1
			c0.1,0,0.2-0.1,0.3-0.1s0.2-0.1,0.3-0.2c0-0.2-0.1-0.4-0.2-0.5c-0.1-0.2-0.2-0.3-0.3-0.5c-0.1-0.1-0.2-0.3-0.4-0.4
			c-0.1-0.1-0.2-0.2-0.3-0.3l0.3-0.8c0.3,0.3,0.5,0.5,0.7,0.7s0.3,0.4,0.4,0.5c0.1,0.2,0.2,0.3,0.2,0.5c0,0.1,0.1,0.3,0.1,0.5
			l0.1-0.1l0.1-0.1l-0.1-1.9l0.8-0.4v2.5c0.1,0,0.1,0,0.2,0c0.1,0,0.1,0,0.2,0h0.7c0.1,0,0.2,0,0.3,0.1s0.1,0.2,0.1,0.3
			c0,0.1,0,0.2-0.1,0.3c-0.1,0.1-0.2,0.1-0.3,0.1h-0.7V276.2z"/>
		<path class="st6" d="M544.7,275.3l-0.2-1.1l0.8-0.3c0,0.1,0,0.2,0.1,0.4c0,0.1,0,0.3,0.1,0.4c0,0.1,0,0.2,0,0.3c0,0.1,0,0.2,0,0.3
			c0,0.2,0,0.4-0.1,0.5s-0.2,0.2-0.3,0.3s-0.3,0.1-0.4,0.1c-0.2,0-0.3,0-0.5,0h-0.9l0,0c-0.1,0-0.2,0-0.3-0.1s-0.1-0.2-0.1-0.3
			c0-0.1,0-0.2,0.1-0.3c0.1-0.1,0.2-0.1,0.3-0.1l0,0h0.7L544.7,275.3L544.7,275.3z M543.9,273.5l0.3-0.6l0.6,0.3l-0.3,0.6
			L543.9,273.5z"/>
		<path class="st6" d="M547,272.4c-0.1,0.1-0.2,0.1-0.4,0.2c-0.1,0-0.3,0-0.4,0c-0.1,0-0.2,0-0.3,0s-0.2,0-0.3-0.1l-0.1,0.3
			l-0.5-0.3c0,0,0-0.1,0.1-0.2c0-0.1,0.1-0.2,0.1-0.2c0-0.1,0.1-0.1,0.1-0.2s0.1-0.1,0.1-0.1s0,0,0.1,0s0.1,0,0.2,0
			c0.1,0,0.2,0,0.3,0s0.2,0,0.3,0s0.2,0,0.4,0c0.1,0,0.3-0.1,0.4-0.1L547,272.4z M546.6,275.9l-0.8,0.4v-3.1l0.8-0.4V275.9z"/>
		<path class="st6" d="M549.4,277.1l-1.2,0.4l0.1-0.3l1.4-0.5L549.4,277.1z"/>
		<path class="st6" d="M548.8,273.7c0-0.1,0-0.1,0.1-0.1h0.1c0.2,0,0.3,0.1,0.4,0.2c0.1,0.1,0.2,0.3,0.3,0.4
			c0.1,0.2,0.1,0.3,0.2,0.5s0.1,0.4,0.1,0.5c0,0.2,0,0.3-0.1,0.4s-0.1,0.2-0.3,0.3c-0.1,0.1-0.2,0.1-0.4,0.2c-0.1,0-0.3,0.1-0.5,0.1
			h-0.3c-0.2,0-0.3,0-0.4-0.1c-0.1,0-0.2-0.1-0.2-0.2c-0.1-0.1-0.1-0.2-0.1-0.3s0-0.2,0-0.3v-0.1c0-0.1,0-0.1,0-0.1l0.6-0.2v0.1
			c0,0.1,0,0.2,0.1,0.2c0.1,0.1,0.2,0.1,0.3,0.1c0,0,0.1,0,0.2,0c0.1,0,0.1,0,0.2,0c0.1,0,0.1,0,0.2,0c0.1,0,0.1,0,0.1,0
			c0-0.1-0.1-0.2-0.1-0.3c0-0.1-0.1-0.2-0.2-0.3c-0.1-0.1-0.1-0.2-0.2-0.2s-0.2-0.1-0.3-0.1L548.8,273.7z"/>
		<path class="st6" d="M551.1,275.9l-0.8,0.4v-3.1l0.8-0.4V275.9z"/>
		<path class="st6" d="M554.1,276.2c-0.1,0-0.2,0-0.3,0s-0.2,0-0.2,0c-0.1,0-0.1-0.1-0.2-0.1c-0.1,0-0.1-0.1-0.2-0.2
			c-0.1,0.1-0.1,0.1-0.2,0.2c-0.1,0-0.2,0.1-0.3,0.1s-0.2,0.1-0.3,0.1s-0.2,0-0.3,0s-0.2,0-0.3,0s-0.2-0.1-0.2-0.1
			c-0.1-0.1-0.1-0.1-0.1-0.2s-0.1-0.2-0.1-0.4v-0.4l0.6-0.2c0,0.3,0.1,0.5,0.2,0.5h0.1c0,0,0.1,0,0.2,0c0.1,0,0.1,0,0.2,0
			c0.1,0,0.1,0,0.2,0l-0.2-1.2l0.7-0.5l0.1,1c0,0.2,0.1,0.3,0.1,0.4s0.1,0.2,0.1,0.2c0,0.1,0.1,0.1,0.1,0.1h0.1h0.7
			c0.1,0,0.2,0,0.3,0.1s0.1,0.2,0.1,0.3c0,0.1,0,0.2-0.1,0.3c-0.1,0.1-0.2,0.1-0.3,0.1L554.1,276.2L554.1,276.2z"/>
		<path class="st6" d="M556.3,275.3l-0.2-1.1l0.8-0.3c0,0.1,0,0.2,0.1,0.4c0,0.1,0,0.3,0.1,0.4c0,0.1,0,0.2,0,0.3c0,0.1,0,0.2,0,0.3
			c0,0.2,0,0.4-0.1,0.5s-0.2,0.2-0.3,0.3s-0.3,0.1-0.4,0.1c-0.2,0-0.3,0-0.5,0h-0.9l0,0c-0.1,0-0.2,0-0.3-0.1s-0.1-0.2-0.1-0.3
			c0-0.1,0-0.2,0.1-0.3c0.1-0.1,0.2-0.1,0.3-0.1l0,0h0.7L556.3,275.3L556.3,275.3z M554.8,277.6l0.3-0.7l0.7,0.3l-0.3,0.7
			L554.8,277.6z M555.7,277.4l0.3-0.7l0.7,0.3l-0.3,0.7L555.7,277.4z"/>
		<path class="st6" d="M557.7,277.4c-0.1,0-0.3,0-0.4-0.1c-0.1-0.1-0.3-0.2-0.5-0.3l0.3-0.5c0.1,0.1,0.2,0.1,0.2,0.1
			c0.1,0,0.2,0,0.2,0c0.2,0,0.3,0,0.5-0.1s0.3-0.2,0.4-0.4c0,0-0.1,0.1-0.2,0.1c-0.1,0-0.1,0-0.2,0c-0.1,0-0.2,0-0.2,0
			s-0.1-0.1-0.2-0.1s-0.1-0.1-0.1-0.2s0-0.1,0-0.2s0-0.2,0-0.3c0-0.1,0.1-0.2,0.1-0.3c0-0.1,0.1-0.2,0.1-0.3c0-0.1,0.1-0.2,0.1-0.3
			c0.2,0,0.4,0.1,0.6,0.1c0.1,0.1,0.3,0.2,0.3,0.3c0.1,0.1,0.1,0.2,0.2,0.4c0,0.1,0,0.3,0,0.5s0,0.4-0.1,0.6s-0.2,0.4-0.3,0.6
			s-0.3,0.3-0.4,0.4C558.1,277.4,557.9,277.4,557.7,277.4z"/>
		<path class="st6" d="M559.2,276.4c0.1,0.1,0.2,0.1,0.2,0.1s0.2,0,0.3,0s0.3-0.1,0.5-0.2s0.3-0.3,0.5-0.5c-0.1-0.2-0.3-0.4-0.4-0.5
			l0.4-0.8c0.2,0.2,0.3,0.3,0.4,0.5c0.1,0.2,0.2,0.4,0.2,0.6s0,0.3-0.1,0.5s-0.2,0.4-0.3,0.5c-0.1,0.2-0.3,0.3-0.4,0.4
			c-0.2,0.1-0.4,0.2-0.6,0.2c-0.1,0-0.3,0-0.4-0.1c-0.1-0.1-0.3-0.2-0.5-0.3L559.2,276.4z"/>
		<path class="st6" d="M566.8,276.2c-0.1,0-0.2,0-0.3,0s-0.2-0.1-0.2-0.1c-0.1-0.1-0.1-0.1-0.2-0.2c-0.1-0.1-0.1-0.2-0.2-0.2
			c0,0.1-0.1,0.2-0.2,0.3c-0.1,0.1-0.2,0.2-0.3,0.2c-0.1,0.1-0.3,0.1-0.4,0.1c-0.2,0-0.3,0-0.5,0.1h-0.1c-0.1,0-0.1,0-0.2,0
			c-0.1,0-0.1,0-0.2,0c-0.1,0-0.1,0-0.1,0c-0.2,0-0.4,0-0.6-0.1c-0.2,0-0.3-0.1-0.4-0.2c-0.1-0.1-0.2-0.2-0.3-0.3
			c-0.1-0.1-0.1-0.3-0.1-0.5c0-0.1,0-0.1,0-0.2s0-0.2,0-0.3c0-0.1,0-0.2,0.1-0.3l0.6-0.1c0,0.1,0,0.1,0,0.2s0,0.1,0,0.2s0,0.1,0,0.1
			c0,0.2,0.1,0.3,0.2,0.4c0.1,0.1,0.3,0.1,0.6,0.1c0.1,0,0.2,0,0.3,0s0.3,0,0.4,0c0.1,0,0.3,0,0.4,0c0.1,0,0.2,0,0.3,0
			c-0.1-0.1-0.2-0.2-0.3-0.4c-0.1-0.1-0.2-0.3-0.3-0.4s-0.2-0.3-0.4-0.4l0.3-1l1.9-0.4l-0.2,0.9l-1.2,0.2c0.1,0.1,0.1,0.2,0.2,0.3
			c0.1,0.1,0.2,0.2,0.3,0.3c0.1,0.1,0.2,0.2,0.3,0.3c0.1,0.1,0.2,0.2,0.3,0.3c0.1,0.1,0.2,0.2,0.3,0.2c0.1,0.1,0.2,0.1,0.3,0.1h0.7
			c0.1,0,0.2,0,0.3,0.1s0.1,0.2,0.1,0.3c0,0.1,0,0.2-0.1,0.3c-0.1,0.1-0.2,0.1-0.3,0.1H566.8z"/>
		<path class="st6" d="M569,275.3l-0.2-1.1l0.8-0.3c0,0.1,0,0.2,0.1,0.4c0,0.1,0,0.3,0.1,0.4c0,0.1,0,0.2,0,0.3c0,0.1,0,0.2,0,0.3
			c0,0.2,0,0.4-0.1,0.5s-0.2,0.2-0.3,0.3c-0.1,0.1-0.3,0.1-0.4,0.1c-0.2,0-0.3,0-0.5,0h-0.9l0,0c-0.1,0-0.2,0-0.3-0.1
			s-0.1-0.2-0.1-0.3c0-0.1,0-0.2,0.1-0.3c0.1-0.1,0.2-0.1,0.3-0.1l0,0h0.7L569,275.3L569,275.3z M567.5,277.6l0.3-0.7l0.7,0.3
			l-0.3,0.7L567.5,277.6z M568.4,277.4l0.3-0.7l0.7,0.3l-0.3,0.7L568.4,277.4z"/>
		<path class="st6" d="M573.3,278.1l-1.2,0.4l0.1-0.3l1.4-0.5L573.3,278.1z"/>
		<path class="st6" d="M573.6,274.1l0.8-0.2c0,0.2,0,0.3,0.1,0.4c0,0.1,0,0.2,0.1,0.3c0,0.1,0,0.2,0,0.3c0,0.1,0,0.2,0,0.3
			c0,0.2,0,0.4-0.1,0.5s-0.2,0.2-0.3,0.3c-0.1,0.1-0.3,0.1-0.5,0.2c-0.2,0-0.4,0.1-0.6,0.1h-0.6c-0.2,0-0.4,0-0.6-0.1
			c-0.2,0-0.3-0.1-0.4-0.2c-0.1-0.1-0.2-0.2-0.3-0.3c-0.1-0.1-0.1-0.3-0.1-0.5c0-0.1,0-0.1,0-0.2s0-0.2,0-0.3c0-0.1,0-0.2,0-0.3
			l0.6-0.1c0,0.1,0,0.1,0,0.2s0,0.1,0,0.2s0,0.2,0,0.3c0,0.1,0.1,0.1,0.1,0.2c0.1,0,0.1,0.1,0.3,0.1c0.1,0,0.2,0,0.4,0h1.3
			L573.6,274.1z M572.3,277.3l0.3-0.7l0.6,0.3l-0.3,0.6L572.3,277.3z"/>
		<path class="st6" d="M576.4,276.2c0,0.2-0.1,0.3-0.2,0.4c-0.1,0.1-0.2,0.3-0.3,0.4s-0.2,0.2-0.4,0.3c-0.1,0.1-0.3,0.1-0.5,0.1
			c-0.1,0-0.3,0-0.4-0.1c-0.1-0.1-0.3-0.2-0.5-0.3l0.3-0.5c0.1,0.1,0.2,0.1,0.2,0.1c0.1,0,0.2,0,0.2,0c0.2,0,0.3,0,0.5-0.1
			c0.1-0.1,0.3-0.2,0.4-0.3c-0.1,0-0.1,0-0.2,0h-0.1l0,0l0,0c-0.2,0-0.3-0.1-0.4-0.2c-0.1-0.1-0.1-0.2-0.1-0.4c0-0.1,0-0.2,0-0.3
			c0-0.1,0-0.2,0.1-0.3c0-0.1,0.1-0.2,0.1-0.3c0-0.1,0.1-0.2,0.1-0.3c0.4,0,0.6,0.1,0.8,0.3c0.2,0.2,0.3,0.4,0.3,0.6h1.1
			c0.1,0,0.2,0,0.3,0.1s0.1,0.2,0.1,0.3c0,0.1,0,0.2-0.1,0.3c-0.1,0.1-0.2,0.1-0.3,0.1L576.4,276.2L576.4,276.2z"/>
		<path class="st6" d="M578.6,275.3c0.1,0,0.2,0,0.3,0s0.2,0,0.3,0s0.2,0,0.3-0.1c0.1,0,0.2-0.1,0.4-0.1c0,0-0.1,0-0.2-0.1
			c-0.1,0-0.1-0.1-0.2-0.1c-0.1,0-0.1,0-0.2-0.1c-0.1,0-0.1,0-0.1,0c-0.1,0-0.1,0-0.1,0.1s-0.1,0.1-0.1,0.2l-0.6-0.4
			c0.1-0.2,0.1-0.3,0.2-0.4c0.1-0.1,0.1-0.2,0.2-0.2c0.1-0.1,0.1-0.1,0.2-0.1c0.1,0,0.2,0,0.2,0c0.1,0,0.3,0,0.4,0.1
			c0.1,0.1,0.3,0.1,0.5,0.2s0.4,0.1,0.6,0.2s0.4,0.1,0.7,0.1l-0.2,0.9c-0.2,0-0.3,0-0.5,0.1s-0.3,0.1-0.5,0.2s-0.3,0.2-0.4,0.2
			c-0.1,0.1-0.2,0.1-0.3,0.2c-0.1,0-0.3,0.1-0.4,0.1c-0.2,0-0.4,0-0.6,0h-0.8c-0.1,0-0.2,0-0.3-0.1s-0.1-0.2-0.1-0.3
			c0-0.1,0-0.2,0.1-0.3c0.1-0.1,0.2-0.1,0.3-0.1h0.9V275.3z M578.7,273.3l0.3-0.6l0.6,0.3l-0.3,0.6L578.7,273.3z"/>
		<path class="st6" d="M584.9,276.2c-0.1,0-0.3,0-0.4,0c-0.1,0-0.2,0-0.3-0.1c-0.1,0-0.1-0.1-0.2-0.2c-0.1-0.1-0.1-0.2-0.2-0.3
			l-0.2,0.4c-0.2,0-0.3,0-0.5-0.1c-0.1,0-0.3-0.1-0.4-0.1c-0.1-0.1-0.2-0.1-0.2-0.2c-0.1-0.1-0.1-0.2-0.1-0.3c0-0.2,0-0.3,0.1-0.5
			c0.1-0.1,0.2-0.3,0.3-0.4s0.2-0.2,0.4-0.3c0.1-0.1,0.2-0.1,0.3-0.2v-0.5l0.8,0.2v1.6h1.2c0.1,0,0.2,0,0.3,0.1s0.1,0.2,0.1,0.3
			c0,0.1,0,0.2-0.1,0.3c-0.1,0.1-0.2,0.1-0.3,0.1h-0.6V276.2z M583.8,274.7l-0.5,0.4l0.6,0.1L583.8,274.7z"/>
		<path class="st6" d="M587.2,275.3l-0.2-1.1l0.8-0.3c0,0.1,0,0.2,0.1,0.4c0,0.1,0,0.3,0.1,0.4c0,0.1,0,0.2,0,0.3c0,0.1,0,0.2,0,0.3
			c0,0.2,0,0.4-0.1,0.5s-0.2,0.2-0.3,0.3c-0.1,0.1-0.3,0.1-0.4,0.1c-0.2,0-0.3,0-0.5,0h-0.9l0,0c-0.1,0-0.2,0-0.3-0.1
			s-0.1-0.2-0.1-0.3c0-0.1,0-0.2,0.1-0.3c0.1-0.1,0.2-0.1,0.3-0.1l0,0h0.7L587.2,275.3L587.2,275.3z M586.1,277.3l0.3-0.7l0.6,0.3
			l-0.3,0.6L586.1,277.3z"/>
		<path class="st6" d="M590,276.2c-0.1,0-0.2,0-0.3,0s-0.2,0-0.3-0.1c0,0.1-0.1,0.3-0.2,0.4c-0.1,0.2-0.2,0.3-0.3,0.4
			s-0.2,0.2-0.4,0.3c-0.2,0.1-0.3,0.1-0.5,0.1c-0.1,0-0.3,0-0.4-0.1c-0.1-0.1-0.3-0.2-0.5-0.3l0.3-0.5c0.1,0.1,0.2,0.1,0.2,0.1
			c0.1,0,0.2,0,0.3,0s0.2,0,0.3-0.1s0.2-0.1,0.3-0.2s0.2-0.2,0.2-0.3c0.1-0.1,0.1-0.2,0.2-0.3c-0.1-0.2-0.2-0.4-0.3-0.7l0.7-0.5
			c0,0.2,0.1,0.4,0.2,0.6c0.1,0.1,0.2,0.2,0.4,0.2h0.7c0.1,0,0.2,0,0.3,0.1s0.1,0.2,0.1,0.3c0,0.1,0,0.2-0.1,0.3
			c-0.1,0.1-0.2,0.1-0.3,0.1H590V276.2z"/>
		<path class="st6" d="M594.7,276.2c-0.3,0-0.6,0-0.8-0.1s-0.4-0.2-0.5-0.5c-0.1,0.1-0.2,0.2-0.3,0.2c-0.1,0.1-0.2,0.1-0.4,0.2
			c-0.1,0.1-0.3,0.1-0.5,0.1s-0.4,0-0.7,0h-0.8c-0.1,0-0.2,0-0.3-0.1s-0.1-0.2-0.1-0.3c0-0.1,0-0.2,0.1-0.3c0.1-0.1,0.2-0.1,0.3-0.1
			l0,0h0.7h0.3c0.1,0,0.2,0,0.4,0c0.1,0,0.2,0,0.4,0c0.1,0,0.2,0,0.3-0.1c0.1,0,0.2-0.1,0.3-0.1c-0.1,0-0.2-0.1-0.3-0.1
			s-0.2,0-0.3-0.1c-0.1,0-0.1,0-0.2,0c-0.1,0-0.1,0-0.1,0.1s-0.1,0.1-0.1,0.2l-0.6-0.4c0.1-0.2,0.1-0.3,0.2-0.4
			c0.1-0.1,0.1-0.2,0.2-0.3c0.1-0.1,0.1-0.1,0.2-0.1c0.1,0,0.2,0,0.2,0c0.1,0,0.3,0,0.4,0.1c0.1,0,0.3,0.1,0.5,0.2s0.4,0.1,0.6,0.2
			c0.2,0.1,0.4,0.1,0.7,0.1l-0.3,0.8h1.4c0.1,0,0.2,0,0.3,0.1s0.1,0.2,0.1,0.3c0,0.1,0,0.2-0.1,0.3c-0.1,0.1-0.2,0.1-0.3,0.1
			L594.7,276.2L594.7,276.2z M591.9,277.3l0.3-0.7l0.6,0.3l-0.3,0.6L591.9,277.3z"/>
		<path class="st6" d="M597.2,275.3l-0.2-1.1l0.8-0.3c0,0.1,0,0.2,0.1,0.4c0,0.1,0,0.3,0.1,0.4c0,0.1,0,0.2,0,0.3c0,0.1,0,0.2,0,0.3
			c0,0.2,0,0.4-0.1,0.5s-0.2,0.2-0.3,0.3c-0.1,0.1-0.3,0.1-0.4,0.1c-0.2,0-0.3,0-0.5,0h-0.9l0,0c-0.1,0-0.2,0-0.3-0.1
			s-0.1-0.2-0.1-0.3c0-0.1,0-0.2,0.1-0.3c0.1-0.1,0.2-0.1,0.3-0.1l0,0h0.7L597.2,275.3L597.2,275.3z M595.8,273.5l0.3-0.7l0.6,0.3
			l0.2-0.5l0.7,0.3l-0.3,0.7l-0.6-0.3l-0.2,0.5L595.8,273.5z"/>
	</g>
</g>
</svg>
