<?xml version="1.0" encoding="utf-8"?>
<!-- Generator: Adobe Illustrator 22.1.0, SVG Export Plug-In . SVG Version: 6.00 Build 0)  -->
<svg version="1.1" id="ad3acef6-40f9-4409-a616-f2253c54cee5"
	 xmlns="http://www.w3.org/2000/svg" xmlns:xlink="http://www.w3.org/1999/xlink" x="0px" y="0px" viewBox="0 0 910.2 801.7"
	 style="enable-background:new 0 0 910.2 801.7;" xml:space="preserve">
<style type="text/css">
	.st0{fill:#F2F2F2;}
	.st1{fill:#3F3D56;}
	.st2{fill:#2F2E41;}
	.st3{fill:#39AD6A;}
	.st4{fill:url(#SVGID_1_);}
	.st5{fill:#575A89;}
	.st6{fill:#CBCEDA;}
	.st7{opacity:0.1;enable-background:new    ;}
	.st8{fill:#FBBEBE;}
	.st9{opacity:5.000000e-02;enable-background:new    ;}
	.st10{opacity:0.1;}
</style>
<title>fingerprint</title>
<path class="st0" d="M771.2,298.2C727.9,128,578.3,5.1,402.7,0.1C309.9-2.5,212.3,28.3,141.1,136C14,328.6,149,461.7,243,524.9
	c45.4,30.6,86.4,67.4,121.7,109.4c63.5,75.4,185.8,169.1,331.4,22.3C801.6,550.1,800,411.5,771.2,298.2z"/>
<ellipse class="st1" cx="455" cy="730.7" rx="455" ry="23"/>
<path class="st2" d="M591.8,228.6"/>
<path class="st3" d="M342.9,323.3c-7.7,0-14-6.2-14.1-14c0-2.5,0.6-4.9,1.9-7c17.8-30,71.9-100.1,190.1-100.1
	c51.2,0,96.1,13.6,133.4,40.4c30.7,22,47.9,46.9,56.1,58.9c4.3,6.3,2.7,15-3.6,19.3l-0.1,0.1c-6.4,4.3-15.2,2.7-19.6-3.7
	c-14.9-21.6-60.1-87.2-166.2-87.2c-103.6,0-150.4,60.4-165.7,86.3C352.6,320.7,347.9,323.4,342.9,323.3L342.9,323.3z"/>
<path class="st3" d="M580.3,597.7c-1.2,0-2.4-0.1-3.5-0.4c-85.7-21.5-117.7-108.1-119-111.7l-0.2-0.8c-0.7-2.5-17.9-61.9,8.5-96.7
	c12.1-15.9,30.5-24,54.8-24c22.6,0,38.9,7.1,50.1,21.8c9.2,12,12.9,26.8,16.5,41.1c7.5,29.7,12.9,45.3,44.1,46.9
	c13.7,0.7,22.7-7.4,27.8-14.3c13.8-18.8,16.2-49.5,5.8-76.5c-13.4-35-60.8-100.9-144.4-100.9c-35.7,0-68.5,11.6-94.8,33.4
	c-21.8,18.1-39.1,43.6-47.4,69.8c-15.4,48.8,4.8,125.5,5,126.2c2,7.4-2.4,15-9.9,17h-0.1c-7.5,2-15.2-2.4-17.3-9.9
	c-0.9-3.5-22.5-85.3-4.7-141.7c19.4-61.1,79.2-122.7,169.2-122.7c41.6,0,80.9,14.3,113.7,41.3c25.4,21,46.2,49.2,57,77.4
	c13.8,36,10.1,76.4-9.4,102.8c-13,17.6-31.5,26.8-52,25.8c-53.4-2.7-63-40.4-70-67.9c-7.2-28.2-11.8-41.8-39.3-41.8
	c-15.1,0-25.7,4.2-32.3,12.9c-9,11.9-9.7,30.5-8.7,44c0,0.1,0,0.3,0,0.4c1.3,17.2,6.5,33.8,15.2,48.7c13.9,23.9,42,60.6,88.8,72.4
	c7.5,1.8,12,9.3,10.2,16.8v0.1C592.3,593.4,586.7,597.7,580.3,597.7L580.3,597.7z"/>
<path class="st3" d="M470.3,591.3c-3.9,0-7.6-1.6-10.3-4.4c-34.3-36.4-53.7-77.1-61-128v-0.3c-4.1-33.7,1.9-81.4,31.3-114.2
	c21.7-24.2,52.2-36.5,90.5-36.5c45.3,0,80.9,21.3,103.1,61.5c10,18.5,16.6,38.7,19.4,59.5c0.7,7.8-5,14.6-12.8,15.3
	c-7.6,0.7-14.4-4.8-15.3-12.4c-2.4-17.4-8-34.3-16.5-49.7c-17.2-30.7-43.4-46.3-78-46.3c-29.9,0-53.3,9.1-69.4,27.1
	c-23.2,25.9-27.7,65.8-24.5,92.2c6.4,45,23.5,80.8,53.7,112.8c5.2,5.5,5,14.3-0.5,19.6c-0.1,0-0.1,0.1-0.2,0.1
	C477.2,590,473.8,591.3,470.3,591.3z"/>
<circle class="st3" cx="521" cy="442.7" r="18"/>
<linearGradient id="SVGID_1_" gradientUnits="userSpaceOnUse" x1="660.0393" y1="652.329" x2="660.0393" y2="651.8804" gradientTransform="matrix(-1 0 0 1 919.4893 33.2181)">
	<stop  offset="0" style="stop-color:#808080;stop-opacity:0.25"/>
	<stop  offset="0.5351" style="stop-color:#808080;stop-opacity:0.12"/>
	<stop  offset="1" style="stop-color:#808080;stop-opacity:0.1"/>
</linearGradient>
<path class="st4" d="M259.9,685.1L259.9,685.1c0,0-0.3,0.2-0.9,0.4C259.3,685.4,259.6,685.2,259.9,685.1z"/>
<path class="st5" d="M140.6,580.3c-7.5,21.6,1.3,56.6,5.3,72.2c4.1,15.6,5.3,34.4,5.3,34.4c15.9,2.5,27.5-0.6,27.5-0.6l-6.6-32.2
	c4.7-19.1,0-70,0-70s10.6-19.7,11.6-49.7c0.9-29.5,8.2-39.1,8.4-39.4l0,0c15,7.8,34.1,91.6,34.1,91.6c-1.6,20.3,0.3,51.6,6.6,68.5
	c3.8,10.7,5.4,22.1,4.7,33.4c2.2,1.8,5.2,2.2,8.5,1.6c8.9-1.4,19.6-9.1,19.6-9.1s-3.4-91.3-5.9-94.7s0-23.1,0-23.1l-4.1-31.9
	c0,0,0.6-54.1-5.3-63.5c-5.1-8.1-6.3-22.3-6.5-26.1c0-0.6,0-0.9,0-0.9l-9-10.8c0,0-87.5-6.6-94.1,0c-1.6,1.6-2.6,5.3-3.2,9.9
	c-1.8,14.2,0.3,37.3,0.3,37.3s2.6,17.2,6.4,34.7c2.3,10.5,2.3,21.4,0,31.9C145.3,556,144.1,568.4,140.6,580.3z"/>
<path class="st6" d="M146.1,717.4c3.9,5.2,26.9,3,30.8,1.4c2.4-1,2.2-5.5,1.6-10.1c-0.4-2.9-1-5.9-1.3-8.1c-0.6-5.6,1.9-17,1.9-17
	s-5.2,5.5-6.4,0c-0.5-2.4-2.5-3.6-4.5-4.2c-2.7-0.8-5.6-0.6-8.1,0.5c-4.1,1.8-10.8,5.5-9.6,10.6c1.7,7.2-4.4,17.4-4.4,17.4
	c-0.5,0.6-0.9,1.3-1.1,2C143.9,712.2,144.3,715.2,146.1,717.4z"/>
<path class="st7" d="M146.1,717.4c3.9,5.2,26.9,3,30.8,1.4c2.4-1,2.2-5.5,1.6-10.1c-2.5,1.2-6.7,2.1-13.7,1.5
	c-1.6-0.2-3.3-0.2-4.9-0.2c-5,0.2-10,0.1-14.9-0.3C143.9,712.2,144.3,715.2,146.1,717.4z"/>
<path class="st7" d="M226.3,586.6c-1.6,20.3,0.3,51.6,6.6,68.5c3.8,10.7,5.4,22.1,4.7,33.4c2.2,1.8,5.2,2.2,8.5,1.6
	c-1.9-13.2-9.9-70-15.1-114.9c-5.9-51.1-33.3-86.3-33.3-86.3l-5.5,6C207.2,502.8,226.3,586.6,226.3,586.6z"/>
<path class="st8" d="M155.5,258l3.8,18.8l18.7,31.4l23.1-9.8c0,0,31.3-32.8,11.6-37.5c-2.4-0.5-4.6-1.5-6.5-2.9
	c-3.9-2.9-5.1-7.2-5.1-11.3c0.2-4.7,1.2-9.2,3.2-13.4L164,220.6c1.7,5.3,2.6,10.8,2.9,16.3c0.3,11-3.8,16.4-7.1,19
	C158.5,256.8,157,257.6,155.5,258z"/>
<path class="st7" d="M163.9,220.5c1.7,5.3,2.6,10.8,2.9,16.3c0.7,0.9,1.5,1.7,2.3,2.5c8.5,8.1,20.7,10.9,31.9,7.3
	c0.2-4.7,1.2-9.2,3.2-13.4L163.9,220.5z"/>
<path class="st8" d="M159.3,215.3c0,17.6,14.3,31.9,31.9,31.9s31.9-14.3,31.9-31.9s-14.3-31.9-31.9-31.9
	c-17.5-0.1-31.8,14.1-31.9,31.6C159.3,215.2,159.3,215.3,159.3,215.3z"/>
<path class="st7" d="M155.5,258l3.8,18.8l18.7,31.4l23.1-9.8c0,0,31.3-32.8,11.6-37.5c-2.4-0.5-4.6-1.5-6.5-2.9
	c3.6,9.8-11.1,30.1-11.1,30.1c-1.7,2.5-5.6,0.9-5.6,0.9c-9.5-1.4-26.9-28.6-29.7-33.2C158.5,256.8,157,257.6,155.5,258z"/>
<path class="st7" d="M137.4,439.8c5.5,1.3,36.3,8.1,47.9,6.4c12.8-1.9,37.7-3.1,37.7-3.1s15.9,0.9,20.7-1.4c0-0.6,0-0.9,0-0.9
	l-9-10.8c0,0-87.5-6.6-94.1,0C139,431.6,138,435.2,137.4,439.8z"/>
<path class="st1" d="M195,289c0,0,16.5-22.9,10.3-31.7l27.9,11.4c0,0,16.8-2,22.8,23c1,4.2,1.3,8.4,1,12.7c-0.2,3.8,0.3,10.4,4.6,19
	c6.9,13.8,5.3,45.3-8.8,48.5s-19.1,1.6-19.1,1.6s1.9,57.2,10,63.8s-20.7,5-20.7,5s-24.9,1.3-37.7,3.1s-48.8-6.6-48.8-6.6
	s5.3-24.1,7.2-39.4s6.3-47.9,6.3-47.9l-31.9-43.2c0,0-5.6-26.1,14.1-37.7s27.1-14.4,27.1-14.4s19.8,32.2,30.1,33.8
	C189.4,289.9,193.3,291.5,195,289z"/>
<path class="st7" d="M231.6,298c0,0,0.3,10.3-1.6,14.4s-8.8,26.6-8.8,26.6h15.6c0,0-8.4-9.1-7.8-13.4S231.6,298,231.6,298z"/>
<path class="st8" d="M185.3,375.9c0,0,34.5-8.4,37.7-15.6s12.1-23.3,12.1-23.3l-3.6-4.9l-16.8,13.2c0,0-20,15.9-29.4,17.5
	S185.3,375.9,185.3,375.9z"/>
<path class="st9" d="M185.3,375.9c0,0,34.5-8.4,37.7-15.6s12.1-23.3,12.1-23.3l-3.6-4.9l-16.8,13.2c0,0-20,15.9-29.4,17.5
	S185.3,375.9,185.3,375.9z"/>
<path class="st8" d="M155.5,335.2v18.7h3c14.9,0,29.5,3.8,42.5,11l5.6,3.1l1.5,0.8l9.7-21.8l-9.1-8.1c0,0-0.2,0-0.5,0
	c-2.2,0.2-11.8,1-15.9-0.4c-3.9-1.3-8.7-5.5-20-2.6c-5.6,1.4-10.4,7.7-15.8,5.7L155.5,335.2z"/>
<path class="st7" d="M125.3,301.1l-6.3,7v17c0,0,5.3,53.8,22.2,59.7c16.9,5.9,47-3.4,47-3.4s7.8-20.6,4.1-21.9s-32.2-8.8-32.2-8.8
	s0.4-31.5-5.8-40.9c0,0,4.1-29.4-10-30S125.3,301.1,125.3,301.1z"/>
<path class="st1" d="M124.4,301.1l-6.3,7v17c0,0,5.3,53.8,22.2,59.7c16.9,5.9,47-3.4,47-3.4s7.8-20.6,4.1-21.9s-32.2-8.8-32.2-8.8
	s0.4-31.5-5.8-40.9c0,0,4.1-29.4-10-30S124.4,301.1,124.4,301.1z"/>
<path class="st7" d="M168.1,228.9c-0.3-2.1,0-4.1,0.7-6.1c0.9-1.9,2.9-3.3,5-2.9c2.7,0.6,3.8,4.1,6.5,4.9c2.2,0.7,4.6-0.9,5.7-2.9
	c1.1-2.1,1.1-4.5,1.1-6.8c0-2.6,0-5.2,0-7.8c0-2.8,0.1-5.9,1.8-8.1c2.2-2.8,7.3-4,10.7-3.9c2.3,0,4.5,0.9,6.1,2.5
	c1.8,1.6,3.9,2.7,6.4,2.3c2.1-0.3,3.9-1.8,4.5-3.9v-0.1c-10.6-14-30.6-16.8-44.7-6.1c-14,10.6-16.8,30.6-6.1,44.7
	c1,1.4,2.2,2.6,3.4,3.8C168.6,235.2,168.3,232.1,168.1,228.9z"/>
<path class="st1" d="M212.1,199.1c2.1-0.3,3.9-1.8,4.5-3.9c0.3-1,0.2-2.1,0.5-3.1c0.7-2.5,3.4-3.7,5.1-5.6c3.5-3.7,3.3-9.9,0.8-14.4
	c-2-3.6-5.9-6.7-10-6c-2.5,0.4-4.7,2.2-7.3,2.4c-2.5,0.2-4.7-1.2-7-2.3c-5.4-2.5-11.5-3-17.3-1.5c-1.8,0.4-3.4,1.2-4.8,2.4
	c-0.9,1.1-1.8,2.3-2.5,3.6c-2.9,3.7-8.1,4.4-12.8,5.3s-9.9,2.7-11.4,7.1c-1,3,0,6.2,0.6,9.3c0.2,0.6,0.1,1.3-0.1,1.9
	c-0.7,1.2-2.5,0.7-3.9,1c-2.6,0.6-3.3,3.9-3.4,6.6c-0.1,3.1-0.2,6.2-0.3,9.2c-0.1,1.2,0,2.3,0.3,3.4c0.6,1.6,1.5,3.1,2.7,4.3
	l10.3,12.4c4.6,5.5,9.4,11.9,8.5,19c2.2,1,4.7-0.9,5.5-3.2s0.1-4.7-0.3-7c-0.8-4-1.4-8.1-1.6-12.2c-0.3-2.1,0-4.1,0.7-6.1
	c0.9-1.9,2.9-3.3,5-2.9c2.7,0.6,3.8,4.1,6.4,4.9c2.2,0.7,4.6-0.9,5.7-2.9s1.1-4.5,1.1-6.8v-7.8c0-2.8,0.1-5.9,1.8-8.1
	c2.2-2.8,7.3-4,10.7-3.9c2.3,0,4.5,0.9,6.1,2.5C207.5,198.4,209.6,199.5,212.1,199.1z"/>
<path class="st7" d="M204.9,297.2l-9.8,40.2C195.1,337.5,187.4,337.4,204.9,297.2z"/>
<path class="st7" d="M171.4,290.5c0,0,12.8,21,7.8,42.7l-2.4,0.2C176.9,333.4,181.1,323.3,171.4,290.5z"/>
<path class="st7" d="M163.3,409.3c0,0-15.7-5.2-16.9,6.9C146.4,416.2,149.4,407.9,163.3,409.3z"/>
<path class="st7" d="M208.8,339.9c0,0,3.1,21.9-2.5,30.6c0,0,11.4,4.7,27.5,3.8l1.9-34.4H208.8z"/>
<path class="st7" d="M206.7,368.1l1.5,0.8l9.7-21.8l-9.1-8.1h-0.5l0,0C208.5,340,211,358.8,206.7,368.1z"/>
<path class="st1" d="M208.8,339c0,0,3.1,21.9-2.5,30.6c0,0,11.4,4.7,27.5,3.8l10.9-34.4H208.8z"/>
<path class="st6" d="M233.8,712.1c0.4,3.2,2.9,5.8,6.1,6.2c8.5,1.3,28.9-2.5,34.1,0c6.6,3.1,32.5,0.9,33.8-2.2
	c0.4-1.3,0.2-2.6-0.5-3.8c-0.9-1.9-2.4-3.5-4.2-4.5c-0.6-0.3-1.2-0.6-1.9-0.8c-4.9-1.6-14.1-5.1-16.6-8.7c0,0-11.5-10.1-14.8-15.5
	c-1.3-2.2-3.5-3.6-6-3.7c-2.7-0.1-5.8,1.3-7,7.3c0,0-15,8.6-19.1,1.1c0,0-0.6,18.5-3.1,21.7l0,0C234,709.9,233.7,711,233.8,712.1z"
	/>
<path class="st7" d="M233.8,712.1c0.4,3.2,2.9,5.8,6.1,6.2c8.5,1.3,28.9-2.5,34.1,0c6.6,3.1,32.5,0.9,33.8-2.2
	c0.4-1.3,0.2-2.6-0.5-3.8c-0.9-1.9-2.4-3.5-4.2-4.5c-4.2,2.8-13.6,5.6-34.3,2.3c-19.7-3.1-29.5,0.9-34.2-1.1l0,0
	C234,709.9,233.7,711,233.8,712.1z"/>
<g class="st10">
	<path d="M150.5,192.9c0-0.1,0-0.1,0-0.1c-0.4-2.3-1.1-4.8-1-7.1c0.2,1.9,0.5,3.8,1,5.7C150.6,191.8,150.6,192.4,150.5,192.9z"/>
	<path d="M168.8,222.2c-0.5,1.1-0.8,2.3-0.8,3.6c-0.1-1.7,0.1-3.4,0.8-5c0.9-1.9,2.9-3.3,5-2.9c2.7,0.6,3.8,4.1,6.4,4.9
		c2.2,0.7,4.6-0.9,5.7-2.9s1.1-4.5,1.1-6.8c0-2.6,0-5.2,0-7.8c0-2.8,0.1-5.9,1.8-8.1c2.2-2.8,7.3-4,10.7-3.9c2.3,0,4.5,0.9,6.1,2.5
		c1.8,1.6,3.9,2.7,6.4,2.3c2.1-0.3,3.9-1.8,4.5-3.9c0.3-1,0.2-2.1,0.5-3.1c0.7-2.5,3.4-3.7,5.1-5.6c1.6-1.8,2.6-4.2,2.6-6.6
		c0.3,2.9-0.7,5.8-2.6,8c-1.8,1.9-4.4,3.1-5.1,5.6c-0.3,1-0.2,2.1-0.5,3.1c-0.6,2.1-2.4,3.6-4.5,3.9c-2.5,0.4-4.6-0.7-6.4-2.3
		c-1.7-1.6-3.8-2.4-6.1-2.5c-3.4-0.1-8.5,1.1-10.7,3.9c-1.8,2.2-1.8,5.3-1.8,8.1c0,2.6,0,5.2,0,7.8c0,2.3,0,4.7-1.1,6.8
		s-3.5,3.6-5.7,2.9c-2.6-0.8-3.8-4.3-6.4-4.9C171.7,218.8,169.7,220.3,168.8,222.2z"/>
	<path d="M143.1,213.5c0.6,1.6,1.5,3.1,2.7,4.3c3.4,4.1,6.9,8.3,10.3,12.4c4.3,5.2,8.9,11.3,8.6,17.9c-0.3-6.1-4.6-11.7-8.6-16.5
		c-3.4-4.1-6.9-8.3-10.3-12.4c-1.2-1.2-2.1-2.7-2.7-4.3c-0.3-1.1-0.3-2.3-0.3-3.4C142.8,212.2,142.9,212.9,143.1,213.5z"/>
	<path d="M170,246.1c0.2-0.5,0.3-1.1,0.3-1.7c0.1,1,0,2.1-0.3,3.1c-0.7,2.3-3.3,4.1-5.5,3.2c0.1-0.5,0.1-0.9,0.1-1.4
		C166.8,250.2,169.3,248.3,170,246.1z"/>
</g>
<path class="st7" d="M271.9,685.5c0,0-3.3,5.7-15.1,0.7"/>
<path class="st7" d="M173.8,685.9c0,0-10.2,12-23.1,3.9"/>
<path class="st7" d="M144.1,543.7c0,0,7.2,4.5,7.4,7.1s-3.7-1.9-3.7-1.9L144.1,543.7z"/>
<path class="st7" d="M141.2,578.3c2.5,2.1,5.6,3.3,8.9,3.5c5.4,0.2,4.9,7.3,1.4,5.2S141.2,578.3,141.2,578.3z"/>
<path class="st7" d="M139.9,582.8c0,0,3.5,17,6.3,13.7"/>
</svg>
